<?xml version="1.0" encoding="UTF-8"?>
<svg xmlns="http://www.w3.org/2000/svg" xmlns:xlink="http://www.w3.org/1999/xlink" width="0" height="0">
<symbol id="cazoo" viewBox="0 0 501 91"><defs></defs><rect x="0" y="0" width="100%" height="100%" fill="none"/><g transform="matrix(0.2125 0 0 0.2121 251.5493 45.9415)"><path style="stroke: none; stroke-width: 1; stroke-dasharray: none; stroke-linecap: butt; stroke-dashoffset: 0; stroke-linejoin: miter; stroke-miterlimit: 4; is-custom-font: none; font-file-url: none; fill: rgb(217,217,217); fill-rule: nonzero; opacity: 1;" vector-effect="non-scaling-stroke" transform=" translate(-1208.56, -240.4034)" d="M 1037 28.1 c -6.5 2.9 -12.7 9.4 -15 15.7 c -1.8 4.8 -2 7.8 -2 33.1 c 0 21.7 0.3 28.8 1.5 32.8 c 1.8 6 8 13.5 13.9 16.6 l 4.1 2.2 l 89.6 0.5 l 89.6 0.5 l -99.8 114.3 c -54.9 62.9 -100.8 116 -102.2 118 c -4.5 6.9 -4.7 8.9 -4.7 40.7 v 30.1 l 2.6 5.2 c 2.9 5.8 7.9 10.6 13.8 13.3 c 3.9 1.8 10.7 1.9 164.1 1.9 c 154.4 0 160.1 -0.1 164.1 -1.9 c 6.2 -2.8 11.9 -8.4 14.5 -14.4 c 2.4 -5.1 2.4 -5.8 2.4 -35.2 v -30 l -2.8 -5.7 c -3 -6.1 -6.4 -9.5 -13.1 -13.1 l -4.1 -2.2 l -93.8 -0.5 l -93.8 -0.5 l 100.3 -114.8 c 55.2 -63.2 101.5 -116.7 103 -119 c 4.3 -6.5 5 -13.2 4.6 -42.1 c -0.3 -23.9 -0.5 -26.5 -2.4 -30.6 c -2.9 -6.2 -6.7 -10.5 -12.3 -13.8 l -4.6 -2.7 l -156.5 -0.2 c -155.6 -0.3 -156.5 -0.3 -161 1.8 z m -815 0 C 134.5 38.8 64.2 93.9 38.2 172.3 c -29 87.3 0.4 183.2 72.8 237.4 c 68.2 51 163.1 59.4 240.6 21.1 c 10.7 -5.2 14.5 -8.5 17.1 -14.5 c 1.8 -4.5 1.6 -12.1 -0.6 -16.8 c -2.8 -6.2 -37.8 -56.8 -40.7 -58.9 c -1.5 -1.1 -4.9 -2.1 -7.9 -2.4 c -4.8 -0.4 -6.1 0 -13.6 4.1 c -45.4 24.5 -98.4 17.2 -135.7 -18.8 c -43.5 -41.8 -48.7 -103.8 -12.8 -151.6 c 15.7 -20.9 38.8 -36.5 64.1 -43.6 c 9.3 -2.6 11.3 -2.8 28.5 -2.8 c 17.6 0.1 18.9 0.2 27 2.9 c 9.6 3.2 12.8 4.7 25.2 11.8 c 7.2 4.1 9.6 5 13.6 5 c 5.3 0 9.6 -1.8 12.8 -5.4 c 3.6 -4.1 39.3 -56.4 40.4 -59.2 c 1.4 -3.8 1.3 -12.1 -0.4 -15.9 c -3.1 -7.5 -11.8 -13 -34.6 -22 c -13.6 -5.4 -29.8 -9.8 -46.5 -12.8 c -9.4 -1.7 -17 -2.2 -35 -2.4 c -12.6 -0.2 -26.4 0.1 -30.5 0.6 z m 1422.2 0 c -33.4 2.9 -70 15.6 -97.2 33.6 c -51.6 34.2 -84.4 84.8 -94.7 146.2 c -2.8 16.6 -2.5 51.4 0.6 68.5 c 5.5 31.3 15.7 56.8 33 82.8 c 32.7 49 82.5 81.4 141.7 91.9 c 17.1 3.1 51.9 3.4 68.5 0.6 c 23 -3.8 44.1 -10.7 64.1 -20.9 c 61.7 -31.3 103.6 -89.7 114.4 -159.3 c 2.3 -15 2.3 -46.9 0 -61.9 c -7.4 -47.1 -27.3 -86.5 -60.5 -119.7 c -33.1 -33.1 -73.6 -53.6 -119.2 -60.3 c -13.4 -2 -37.6 -2.7 -50.7 -1.5 z m 44 108.7 c 39.9 10.6 68.4 39.2 78.9 79 c 3.3 12.2 3.7 32 0.9 45.1 c -4.3 20.8 -12.8 37.4 -27.2 52.6 c -34.8 36.8 -88.5 44.5 -131.8 18.8 c -47.4 -28 -65.6 -87.4 -42 -137 c 5.8 -12.4 11.2 -19.8 22.4 -30.8 c 15.4 -15.2 31.5 -23.9 52.7 -28.5 c 12.4 -2.6 34.4 -2.3 46.1 0.8 z M 2163 27.6 c -20.3 1.8 -37.3 5.2 -53.5 10.6 c -78.4 26.1 -134.5 95 -144.5 177.8 c -1.5 12.4 -1.2 39.2 0.5 52.6 c 8.7 66 47.8 124.3 105.5 157.4 c 61 34.9 136 37.3 199.5 6.5 c 64 -31 108.8 -92.9 118 -163 c 1.7 -13.4 2 -42.1 0.5 -54.5 c -6.7 -53.6 -33.4 -103.3 -73.9 -137.2 c -31.3 -26.1 -68.3 -42.9 -107 -48.2 c -11.5 -1.6 -36.8 -2.7 -45.1 -2 z m 32.1 107.9 c 52.7 9.2 91.3 57.1 88.5 110 c -2 39 -25.1 74.1 -59.9 91 c -53.6 25.9 -116.8 3.8 -142.7 -49.9 c -8.2 -17 -11.8 -35 -10.6 -52.5 c 3.3 -43.6 32 -80.8 73.3 -94.7 c 15.8 -5.4 34.9 -6.8 51.4 -3.9 z M 606 29.9 c -21.9 4.7 -40.6 17.2 -54 36.2 c -4.9 7 -12.1 20.4 -15 27.9 c -0.7 1.9 -7.4 16.5 -14.8 32.5 c -7.4 15.9 -16.5 35.7 -20.2 44 c -3.7 8.2 -8.1 17.7 -9.7 21 l -3.1 5.9 l -0.7 -4.4 c -1.5 -9.3 -5.7 -14.3 -13 -16 c -5.4 -1.2 -49 5.2 -52.4 7.8 c -1.9 1.4 -3.8 5.4 -7.5 15.7 c -4.1 11.7 -4.7 14.4 -4 17.4 c 1.7 6.4 3.6 7 31.3 10.4 l 25.1 3 l -1.9 2.1 c -1 1.2 -2.9 4.1 -4.1 6.5 c -4.9 9.7 -5 11.6 -5 104.2 c 0 96.1 -0.3 91.7 6.7 99.8 c 1.9 2.3 5.8 5.4 8.7 6.9 l 5.1 2.7 l 29.8 0.3 c 33.3 0.4 37.1 -0.1 44.8 -6.1 c 2.3 -1.7 5.6 -5.7 7.3 -8.7 l 3.1 -5.5 l 0.3 -35 c 0.3 -34.1 0.3 -35 2.3 -36.8 c 2 -1.6 9.1 -1.7 117.8 -1.7 c 101.2 0 115.9 0.2 117.8 1.5 c 2.1 1.5 2.1 2.1 2.5 36.3 c 0.3 33.9 0.4 34.8 2.6 39.4 c 3.1 6.1 8.5 11.6 14.1 14.2 c 4.3 2 6.5 2.1 34.4 2.4 c 34.8 0.4 37.4 -0.1 45.5 -7.3 c 8.9 -8 8.9 -8.2 9.6 -52.5 c 0.3 -21.2 0.2 -62.1 -0.2 -91 c -1 -57.4 -1 -58 -7.2 -67.1 c -1.6 -2.4 -2.6 -4.5 -2.2 -4.6 c 0.4 -0.1 11.6 -1.6 24.8 -3.2 c 13.3 -1.6 25.1 -3.5 26.2 -4.2 c 2.4 -1.5 4.2 -5.1 4.2 -8.4 c 0 -1.3 -2.1 -8.6 -4.6 -16 c -3.3 -9.5 -5.3 -14.1 -6.8 -15.1 c -2.5 -1.6 -41.3 -7.5 -49.3 -7.6 c -3.7 0 -6.4 0.7 -8.7 2.2 c -3.7 2.2 -7.6 9 -7.6 13.1 c 0 1.3 -0.4 3 -0.8 3.6 c -0.9 1.5 -2.7 -2 -10.4 -19.7 c -2.8 -6.3 -11.1 -24.6 -18.6 -40.5 c -7.4 -16 -16.1 -35 -19.3 -42.3 c -15 -34.6 -33.5 -52.9 -62.4 -61.9 l -9 -2.8 l -71.5 -0.2 c -65.9 -0.2 -72.2 -0.1 -80 1.6 z m 127.1 104 c 1.4 1 3.4 4.1 4.6 6.8 c 7.2 16.4 43.4 108.5 43.6 110.9 l 0.2 2.9 l -97.9 0.3 c -72.5 0.1 -98.2 -0.1 -98.7 -0.9 c -1 -1.7 -0.7 -2.5 20.3 -54.9 c 10.7 -26.7 20.3 -50.8 21.2 -53.5 c 2 -6.2 4.8 -10.5 7.8 -12.1 c 1.8 -1 13 -1.3 49.4 -1.4 c 44.8 0 47.2 0.1 49.5 1.9 z" stroke-linecap="round"/></g></symbol>
<symbol id="nttdata" viewBox="0 0 501 91"><defs></defs><rect x="0" y="0" width="100%" height="100%" fill="none"/><g transform="matrix(1 0 0 1.0154 250.5 37.5012)"><path style="stroke: none; stroke-width: 1; stroke-dasharray: none; stroke-linecap: butt; stroke-dashoffset: 0; stroke-linejoin: miter; stroke-miterlimit: 4; is-custom-font: none; font-file-url: none; fill: rgb(168,168,168); fill-rule: nonzero; opacity: 1;" vector-effect="non-scaling-stroke" transform=" translate(-255, -41.44)" d="M 80.82 5.76 V 20.8 h 22.875 v 56.283 h 16.197 V 20.799 h 22.874 V 5.76 z M 347.452 5.76 h -40.795 v 15.162 h 39.69 c 5.849 0 8.114 2.667 8.114 9.462 v 2.541 h -32.919 c -12.527 0 -18.743 6.247 -18.743 20.398 v 3.372 c 0 14.542 6.46 20.388 19.45 20.388 h 48.258 V 30.206 c 0 -17.945 -5.94 -24.446 -23.055 -24.446 m -23.518 56.076 c -2.453 0 -5.206 -1.222 -5.206 -7.352 c 0 -6.125 2.689 -7.196 5.206 -7.196 h 30.527 v 14.549 z M 481.943 5.76 h -40.786 v 15.162 h 39.714 c 5.816 0 8.082 2.667 8.082 9.462 v 2.541 h -32.885 c -12.528 0 -18.769 6.247 -18.769 20.398 v 3.372 c 0 14.542 6.461 20.388 19.442 20.388 H 505 V 30.206 c 0 -17.945 -5.941 -24.446 -23.056 -24.446 m -23.518 56.076 c -2.452 0 -5.202 -1.222 -5.202 -7.352 c 0 -6.125 2.694 -7.196 5.202 -7.196 h 30.528 v 14.549 z M 147.91 5.76 V 20.8 h 22.875 v 56.283 h 16.236 V 20.799 h 22.875 V 5.76 z M 373.753 5.76 V 20.8 h 22.874 v 56.283 h 16.196 V 20.799 h 22.875 V 5.76 z M 296.528 52.1 V 30.754 c 0 -18.652 -7.227 -24.96 -23.58 -24.96 h -43.391 v 71.288 h 44.151 c 17.332 0 22.82 -8.63 22.82 -24.981 m -16.54 0.337 c 0 6.795 -2.296 9.462 -8.114 9.462 h -26.09 V 20.955 h 26.09 c 5.818 0 8.115 2.664 8.115 9.523 z M 57.946 60.086 c -0.337 -0.643 -21.956 -42.81 -24.623 -46.972 C 30.266 8.34 26.558 5 19.456 5 C 12.84 5 5 7.908 5 23.799 v 53.316 h 15.955 V 32.648 c 0 -3.181 -0.181 -7.93 -0.215 -8.88 c -0.03 -0.793 0 -1.528 0.401 -1.742 c 0.423 -0.282 0.885 0.15 1.222 0.731 c 0.306 0.619 20.361 40.3 24.648 47.003 c 3.034 4.813 6.773 8.12 13.874 8.12 c 6.618 0 14.426 -2.94 14.426 -18.805 V 5.76 H 59.357 v 44.467 c 0 3.212 0.18 7.93 0.242 8.88 c 0 0.769 0 1.528 -0.398 1.748 c -0.463 0.276 -0.919 -0.156 -1.256 -0.768" stroke-linecap="round"/></g></symbol><symbol id="talkdesk" viewBox="0 0 501 91"><defs></defs><rect x="0" y="0" width="100%" height="100%" fill="none"/><g transform="matrix(4.0403 0 0 4.0403 250.4986 40.403)"><g style="" vector-effect="non-scaling-stroke"><g transform="matrix(1 0 0 1 -60.1 1.995)"><path style="stroke: none; stroke-width: 1; stroke-dasharray: none; stroke-linecap: butt; stroke-dashoffset: 0; stroke-linejoin: miter; stroke-miterlimit: 4; is-custom-font: none; font-file-url: none; fill: rgb(217,217,217); fill-rule: evenodd; opacity: 1;" transform=" translate(-1.9, -11.995)" d="M 1.9 10.095 a 1.9 1.9 0 1 1 0 3.8 a 1.9 1.9 0 0 1 0 -3.8" stroke-linecap="round"/></g><g transform="matrix(1 0 0 1 -60.1 7.29)"><path style="stroke: none; stroke-width: 1; stroke-dasharray: none; stroke-linecap: butt; stroke-dashoffset: 0; stroke-linejoin: miter; stroke-miterlimit: 4; is-custom-font: none; font-file-url: none; fill: rgb(217,217,217); fill-rule: evenodd; opacity: 1;" transform=" translate(-1.9, -17.29)" d="M 1.9 15.39 a 1.9 1.9 0 1 1 0 3.8 a 1.9 1.9 0 0 1 0 -3.8" stroke-linecap="round"/></g><g transform="matrix(1 0 0 1 -0.3673 0)"><path style="stroke: none; stroke-width: 1; stroke-dasharray: none; stroke-linecap: butt; stroke-dashoffset: 0; stroke-linejoin: miter; stroke-miterlimit: 4; is-custom-font: none; font-file-url: none; fill: rgb(217,217,217); fill-rule: evenodd; opacity: 1;" transform=" translate(-61.6327, -10)" d="M 66.265 15.234 c -0.752 0.752 -1.707 1.128 -2.863 1.128 c -1.158 0 -2.112 -0.376 -2.892 -1.128 c -0.752 -0.781 -1.128 -1.764 -1.128 -2.95 c 0 -1.185 0.376 -2.169 1.128 -2.921 c 0.78 -0.78 1.734 -1.156 2.892 -1.156 c 1.156 0 2.111 0.376 2.863 1.156 c 0.752 0.752 1.128 1.736 1.128 2.921 c 0 1.186 -0.376 2.169 -1.128 2.95 z m 1.128 -8.474 c -1.099 -1.417 -2.661 -2.111 -4.686 -2.111 c -1.937 0 -3.615 0.752 -5.003 2.227 c -1.359 1.475 -2.053 3.268 -2.053 5.408 c 0 2.14 0.694 3.963 2.053 5.437 c 1.388 1.475 3.066 2.199 5.003 2.199 c 2.025 0 3.587 -0.695 4.686 -2.112 v 1.707 h 3.73 V 0 h -3.73 v 6.76 z m 9.915 4.245 c 0.434 -1.851 1.793 -2.921 3.789 -2.921 c 1.706 0 3.152 0.955 3.585 2.921 h -7.374 z m 3.789 -6.276 c -2.228 0 -4.079 0.723 -5.496 2.198 c -1.417 1.446 -2.14 3.268 -2.14 5.437 c 0 2.199 0.723 4.02 2.169 5.467 C 77.077 19.276 78.985 20 81.386 20 c 2.776 0 4.887 -1.041 6.304 -3.095 l -3.008 -1.735 c -0.723 0.954 -1.821 1.446 -3.238 1.446 c -2.227 0 -3.587 -0.897 -4.078 -2.719 h 10.903 a 9.713 9.713 0 0 0 0.144 -1.533 c 0 -2.169 -0.694 -3.962 -2.082 -5.437 c -1.359 -1.475 -3.124 -2.198 -5.234 -2.198 z m 16.079 6.103 c -1.475 -0.376 -2.632 -0.81 -2.632 -1.591 c 0 -0.723 0.722 -1.186 1.677 -1.186 c 1.07 0 1.851 0.492 2.314 1.475 l 3.181 -1.735 c -1.128 -1.967 -3.152 -3.066 -5.495 -3.066 c -1.561 0 -2.863 0.405 -3.933 1.244 c -1.042 0.81 -1.562 1.938 -1.562 3.355 c 0 3.008 2.69 3.904 4.83 4.454 c 1.475 0.376 2.632 0.809 2.632 1.59 c 0 0.839 -0.666 1.244 -1.996 1.244 c -1.475 0 -2.4 -0.636 -2.834 -1.88 l -3.239 1.822 C 91.189 18.843 93.213 20 96.192 20 c 1.649 0 3.037 -0.405 4.136 -1.186 c 1.128 -0.81 1.677 -1.967 1.677 -3.442 c 0.029 -3.094 -2.719 -4.107 -4.829 -4.54 z m 20.389 -5.698 h -4.454 l -4.974 6.363 V 0.053 h -3.731 v 19.542 h 3.731 V 13.03 l 5.264 6.565 h 4.338 l -5.987 -7.317 l 5.813 -7.144 z m 3.874 3.175 a 1.608 1.608 0 1 1 0.001 -3.215 a 1.608 1.608 0 0 1 -0.001 3.215 z m 0 -3.508 a 1.902 1.902 0 0 0 0 3.801 a 1.902 1.902 0 0 0 0 -3.801 z m 0.267 1.726 a 0.439 0.439 0 0 1 -0.253 0.077 h -0.341 v -0.558 h 0.302 a 0.511 0.511 0 0 1 0.303 0.067 a 0.269 0.269 0 0 1 0.086 0.225 a 0.226 0.226 0 0 1 -0.097 0.189 z m 0.394 0.655 a 0.436 0.436 0 0 0 -0.269 -0.445 a 0.446 0.446 0 0 0 0.28 -0.411 a 0.495 0.495 0 0 0 -0.185 -0.416 a 0.825 0.825 0 0 0 -0.519 -0.143 h -0.603 v 1.855 h 0.308 v -0.739 h 0.385 c 0.167 0.006 0.263 0.079 0.286 0.219 c 0.006 0.079 0.008 0.159 0.006 0.239 a 0.92 0.92 0 0 0 0.031 0.281 h 0.317 v -0.035 a 0.712 0.712 0 0 1 -0.037 -0.271 v -0.134 z M 1.9 4.801 a 1.9 1.9 0 1 0 0.001 3.801 A 1.9 1.9 0 0 0 1.9 4.801 z m 53.548 0.333 h -4.454 l -4.974 6.363 V 0.053 h -3.731 v 19.542 h 3.731 V 13.03 l 5.264 6.565 h 4.337 l -5.986 -7.317 l 5.813 -7.144 z M 35.139 19.595 h 3.73 V 0.053 h -3.73 v 19.542 z m -8.265 -4.28 c -0.752 0.752 -1.706 1.127 -2.863 1.127 s -2.111 -0.375 -2.863 -1.127 c -0.752 -0.781 -1.128 -1.765 -1.128 -2.951 c 0 -1.185 0.376 -2.169 1.128 -2.921 c 0.752 -0.78 1.706 -1.156 2.863 -1.156 s 2.111 0.376 2.863 1.156 c 0.781 0.752 1.157 1.736 1.157 2.921 c 0 1.186 -0.376 2.17 -1.157 2.951 z m 1.157 -8.475 c -1.128 -1.417 -2.69 -2.111 -4.714 -2.111 c -1.938 0 -3.587 0.752 -4.975 2.227 c -1.359 1.475 -2.053 3.268 -2.053 5.408 c 0 2.141 0.694 3.963 2.053 5.437 C 19.73 19.276 21.379 20 23.317 20 c 2.024 0 3.586 -0.695 4.714 -2.112 v 1.707 h 3.731 V 5.134 h -3.731 V 6.84 z M 11.307 0 h -3.73 v 14.94 c 0 3.962 1.879 5.437 6.999 4.858 v -3.383 c -2.141 0.115 -3.269 0.087 -3.269 -1.475 v -6.3 h 3.269 V 5.053 h -3.269 V 0 z" stroke-linecap="round"/></g></g></g></symbol></svg>
