<svg id="svg" version="1.1" xmlns="http://www.w3.org/2000/svg" xmlns:xlink="http://www.w3.org/1999/xlink" width="400" height="573.2057416267943" viewBox="0, 0, 400,573.2057416267943"><g id="svgg"><path id="path0" d="M175.523 50.689 C 173.816 51.748,171.811 56.725,167.903 69.600 C 166.397 74.561,166.099 75.753,165.252 80.200 C 165.085 81.080,164.734 82.193,164.474 82.674 C 164.213 83.154,164.000 84.243,164.000 85.094 C 164.000 85.944,163.840 86.811,163.643 87.020 C 163.447 87.229,163.180 88.480,163.048 89.800 C 162.016 100.183,160.908 101.399,157.967 95.380 C 156.075 91.507,156.090 91.522,153.132 90.415 C 151.889 89.950,150.654 89.307,150.387 88.985 C 150.120 88.663,149.384 88.400,148.751 88.400 C 148.118 88.400,147.600 88.209,147.600 87.975 C 147.600 87.736,147.030 87.604,146.300 87.675 C 144.735 87.826,144.297 89.909,145.375 92.071 C 145.719 92.759,146.000 93.825,146.000 94.438 C 146.000 95.051,146.180 95.664,146.400 95.800 C 146.620 95.936,146.800 96.735,146.800 97.575 C 146.800 98.444,147.058 99.316,147.400 99.600 C 147.730 99.874,148.000 100.706,148.000 101.449 C 148.000 102.192,148.180 102.800,148.400 102.800 C 148.620 102.800,148.800 103.610,148.800 104.600 C 148.800 105.590,148.980 106.400,149.200 106.400 C 149.420 106.400,149.601 106.985,149.602 107.700 C 149.604 108.415,149.874 109.516,150.202 110.146 C 150.531 110.776,150.800 111.821,150.800 112.469 C 150.800 113.117,150.935 113.564,151.100 113.462 C 151.265 113.361,151.452 114.019,151.516 114.925 C 151.580 115.831,151.895 116.863,152.216 117.218 C 152.537 117.573,152.800 118.524,152.800 119.331 C 152.800 120.139,152.980 120.800,153.200 120.800 C 153.420 120.800,153.600 121.070,153.600 121.400 C 153.600 121.819,154.022 122.000,155.000 122.000 C 155.770 122.000,156.400 122.180,156.400 122.400 C 156.400 122.620,157.199 122.800,158.176 122.800 C 160.312 122.800,160.429 122.958,160.631 126.120 C 160.718 127.484,160.902 129.477,161.039 130.549 C 161.215 131.921,161.138 132.591,160.780 132.812 C 160.381 133.059,160.373 133.369,160.743 134.263 C 161.051 135.007,161.240 138.688,161.288 144.900 C 161.346 152.380,161.473 154.400,161.881 154.400 C 162.167 154.400,162.400 154.723,162.400 155.118 C 162.400 155.760,165.223 159.200,165.749 159.200 C 165.866 159.200,166.573 159.830,167.321 160.600 C 168.069 161.370,168.978 162.000,169.340 162.000 C 169.703 162.000,170.000 162.270,170.000 162.600 C 170.000 162.930,170.153 163.200,170.341 163.200 C 170.528 163.200,171.216 163.711,171.869 164.335 C 172.522 164.959,173.629 165.808,174.328 166.221 C 175.028 166.634,175.600 167.204,175.600 167.486 C 175.600 167.769,175.763 168.000,175.963 168.000 C 176.163 168.000,177.160 168.810,178.179 169.800 C 179.197 170.790,180.178 171.600,180.357 171.600 C 180.537 171.600,181.802 172.680,183.167 174.000 C 184.533 175.320,185.776 176.400,185.929 176.400 C 186.083 176.400,186.693 176.850,187.287 177.400 C 187.880 177.950,188.435 178.400,188.520 178.400 C 188.605 178.400,189.713 179.390,190.982 180.600 C 192.252 181.810,193.450 182.800,193.645 182.800 C 193.840 182.800,194.000 183.070,194.000 183.400 C 194.000 183.730,194.151 184.000,194.336 184.000 C 194.521 184.000,195.493 184.765,196.497 185.700 C 199.359 188.368,199.956 188.800,200.781 188.800 C 201.205 188.800,201.665 188.982,201.803 189.204 C 202.682 190.627,205.009 189.194,210.784 183.676 C 211.518 182.974,212.272 182.400,212.459 182.400 C 212.647 182.400,212.800 182.130,212.800 181.800 C 212.800 181.470,213.004 181.200,213.253 181.200 C 213.732 181.200,215.599 179.211,215.600 178.700 C 215.600 178.535,215.840 178.400,216.132 178.400 C 216.425 178.400,216.906 177.950,217.200 177.400 C 217.494 176.850,217.909 176.400,218.121 176.400 C 218.550 176.400,220.399 174.372,220.400 173.900 C 220.400 173.735,220.593 173.600,220.829 173.600 C 221.382 173.600,222.400 172.582,222.400 172.029 C 222.400 171.793,222.588 171.600,222.817 171.600 C 223.046 171.600,223.451 171.417,223.717 171.193 C 223.983 170.969,224.613 170.446,225.117 170.031 C 225.996 169.308,227.600 165.523,227.600 164.173 C 227.600 163.816,227.960 163.431,228.400 163.316 C 229.160 163.117,229.200 162.770,229.200 156.353 C 229.200 152.118,229.349 149.600,229.600 149.600 C 229.820 149.600,230.000 149.150,230.000 148.600 C 230.000 148.050,230.167 147.600,230.371 147.600 C 230.575 147.600,230.995 147.105,231.305 146.500 C 232.424 144.319,233.692 142.188,234.241 141.569 C 234.548 141.221,234.800 140.726,234.800 140.469 C 234.800 140.211,234.977 140.000,235.192 140.000 C 235.408 140.000,235.698 139.550,235.836 139.000 C 235.974 138.450,236.214 138.000,236.369 138.000 C 236.524 138.000,236.898 137.370,237.200 136.600 C 237.502 135.830,237.884 135.200,238.048 135.200 C 238.212 135.200,238.459 134.795,238.597 134.300 C 238.831 133.464,240.401 129.897,241.236 128.305 C 241.436 127.923,241.600 127.248,241.600 126.805 C 241.600 126.362,241.780 126.000,242.000 126.000 C 242.220 126.000,242.400 125.537,242.400 124.971 C 242.400 124.406,242.670 123.673,243.000 123.343 C 243.330 123.013,243.600 122.316,243.600 121.795 C 243.600 121.274,243.780 120.736,244.000 120.600 C 244.220 120.464,244.400 119.838,244.400 119.210 C 244.400 118.581,244.555 118.007,244.744 117.933 C 245.167 117.769,247.200 111.548,247.200 110.418 C 247.200 109.968,247.436 109.600,247.724 109.600 C 249.241 109.600,249.962 99.415,248.643 96.634 C 247.740 94.730,247.370 94.898,245.414 98.100 C 241.178 105.036,241.050 104.829,240.741 90.567 C 240.449 77.095,240.296 75.775,237.998 66.800 C 237.800 66.030,237.456 64.549,237.233 63.509 C 236.125 58.345,234.940 55.718,233.214 54.603 C 232.170 53.927,229.435 53.207,228.739 53.423 C 227.199 53.903,217.768 54.533,212.400 54.515 C 206.545 54.495,203.887 54.240,196.600 52.997 C 194.400 52.622,191.520 52.167,190.200 51.986 C 188.880 51.806,186.720 51.448,185.400 51.192 C 180.148 50.172,179.348 50.047,178.000 50.034 C 177.230 50.027,176.115 50.322,175.523 50.689 M185.800 289.594 C 184.419 290.181,180.878 291.200,180.219 291.200 C 179.873 291.200,179.277 291.365,178.895 291.567 C 178.513 291.768,177.120 292.231,175.800 292.594 C 174.480 292.957,172.987 293.422,172.481 293.627 C 171.976 293.832,171.208 294.000,170.776 294.000 C 170.343 294.000,169.677 294.169,169.295 294.377 C 168.913 294.584,167.520 295.052,166.200 295.418 C 164.880 295.783,163.350 296.225,162.800 296.400 C 162.250 296.575,160.720 297.021,159.400 297.391 C 158.080 297.761,156.550 298.211,156.000 298.391 C 155.450 298.571,153.920 299.021,152.600 299.391 C 151.280 299.761,149.750 300.209,149.200 300.386 C 148.650 300.562,147.390 300.929,146.400 301.201 C 145.410 301.472,144.360 301.763,144.067 301.847 C 142.998 302.154,143.910 303.008,145.633 303.312 C 150.064 304.096,153.370 304.773,156.800 305.602 C 157.570 305.788,159.280 306.148,160.600 306.403 C 163.134 306.891,167.654 307.853,170.000 308.403 C 170.770 308.583,172.840 309.024,174.600 309.383 C 176.360 309.741,178.520 310.192,179.400 310.385 C 182.791 311.127,185.440 311.630,186.400 311.713 L 187.400 311.800 187.621 306.600 C 187.743 303.740,187.816 300.500,187.782 299.400 C 187.749 298.300,187.695 295.555,187.661 293.300 C 187.597 289.018,187.520 288.863,185.800 289.594 M249.176 336.455 C 249.163 338.735,248.979 341.500,248.768 342.600 C 248.556 343.700,248.296 346.040,248.188 347.800 C 248.081 349.560,247.789 351.505,247.539 352.122 C 246.911 353.674,247.288 353.886,251.200 354.178 C 253.070 354.317,255.733 354.530,257.117 354.650 C 258.801 354.797,259.828 354.709,260.220 354.383 C 260.634 354.039,261.712 353.975,263.903 354.164 C 267.476 354.472,277.453 353.803,279.090 353.146 C 279.701 352.901,280.560 352.562,281.000 352.392 C 281.440 352.223,282.808 351.615,284.040 351.042 C 285.272 350.469,286.487 350.000,286.740 350.000 C 286.993 350.000,287.200 349.820,287.200 349.600 C 287.200 349.380,287.397 349.200,287.637 349.200 C 287.877 349.200,288.531 348.840,289.091 348.400 C 289.650 347.960,290.686 347.600,291.392 347.600 C 294.553 347.600,293.667 344.846,290.486 344.787 C 290.109 344.780,289.451 344.510,289.024 344.187 C 288.596 343.864,287.842 343.600,287.347 343.600 C 286.852 343.600,286.336 343.420,286.200 343.200 C 286.064 342.980,285.434 342.800,284.800 342.800 C 284.166 342.800,283.549 342.641,283.429 342.446 C 283.308 342.251,282.713 342.002,282.105 341.892 C 281.110 341.711,279.713 341.261,277.400 340.374 C 276.960 340.205,276.240 339.976,275.800 339.865 C 275.360 339.754,274.010 339.312,272.800 338.884 C 271.590 338.455,269.790 337.884,268.800 337.614 C 267.810 337.344,266.409 336.870,265.686 336.562 C 264.964 336.253,264.107 336.000,263.781 336.000 C 263.455 336.000,262.877 335.832,262.495 335.627 C 262.113 335.422,260.180 334.865,258.200 334.388 C 256.220 333.911,253.880 333.348,253.000 333.136 C 252.120 332.924,250.905 332.651,250.300 332.530 L 249.200 332.309 249.176 336.455 " stroke="none" fill="#a38373" fill-rule="evenodd"></path><path id="path1" d="M194.912 22.048 C 194.666 22.294,193.720 22.485,192.810 22.472 C 191.724 22.457,191.080 22.647,190.935 23.025 C 190.790 23.404,190.117 23.600,188.957 23.600 C 187.991 23.600,187.200 23.768,187.200 23.973 C 187.200 24.179,186.705 24.404,186.100 24.473 C 185.470 24.546,185.044 24.817,185.103 25.108 C 185.173 25.455,184.905 25.541,184.260 25.379 C 183.666 25.230,183.081 25.376,182.686 25.771 C 182.340 26.117,181.684 26.400,181.229 26.400 C 180.773 26.400,180.400 26.580,180.400 26.800 C 180.400 27.020,180.034 27.200,179.587 27.200 C 179.141 27.200,178.671 27.470,178.545 27.800 C 178.418 28.130,177.984 28.400,177.581 28.400 C 177.177 28.400,176.736 28.580,176.600 28.800 C 176.464 29.020,176.069 29.200,175.722 29.200 C 175.375 29.200,174.675 29.650,174.165 30.200 C 173.655 30.750,172.960 31.200,172.619 31.200 C 172.279 31.200,172.000 31.380,172.000 31.600 C 172.000 31.820,171.730 32.000,171.400 32.000 C 171.070 32.000,170.800 32.270,170.800 32.600 C 170.800 32.933,170.444 33.200,170.000 33.200 C 169.560 33.200,169.200 33.380,169.200 33.600 C 169.200 33.820,169.007 34.000,168.771 34.000 C 168.218 34.000,167.200 35.018,167.200 35.571 C 167.200 35.807,167.007 36.000,166.771 36.000 C 166.218 36.000,165.200 37.018,165.200 37.571 C 165.200 37.807,165.012 38.000,164.782 38.000 C 164.239 38.000,162.400 39.839,162.400 40.382 C 162.400 40.612,162.207 40.800,161.971 40.800 C 161.497 40.800,160.400 41.787,160.400 42.214 C 160.400 42.363,159.950 42.839,159.400 43.271 C 158.850 43.704,158.400 44.323,158.400 44.647 C 158.400 44.971,157.950 45.686,157.400 46.236 C 156.850 46.786,156.400 47.498,156.400 47.818 C 156.400 48.138,156.241 48.400,156.047 48.400 C 155.852 48.400,155.585 48.715,155.452 49.100 C 155.320 49.485,154.841 50.405,154.389 51.145 C 153.571 52.482,153.083 82.587,153.847 84.577 C 154.340 85.864,153.646 87.937,152.796 87.715 C 152.365 87.602,151.560 87.624,151.008 87.762 C 149.712 88.088,150.463 89.600,151.921 89.600 C 154.549 89.600,156.821 90.850,157.656 92.754 C 158.101 93.769,158.631 94.913,158.833 95.295 C 159.035 95.677,159.200 96.184,159.200 96.423 C 159.200 98.513,161.018 98.098,161.365 95.929 C 161.514 95.000,161.788 94.051,161.975 93.820 C 162.161 93.589,162.415 92.590,162.538 91.600 C 162.662 90.610,162.942 88.810,163.162 87.600 C 163.382 86.390,163.753 84.239,163.986 82.820 C 164.220 81.401,164.563 80.141,164.750 80.020 C 164.936 79.899,165.196 78.900,165.326 77.800 C 165.683 74.789,166.358 71.882,166.804 71.436 C 167.022 71.218,167.200 70.367,167.200 69.544 C 167.200 68.721,167.380 67.936,167.600 67.800 C 167.820 67.664,168.000 67.192,168.000 66.752 C 168.000 65.765,169.189 61.940,169.658 61.420 C 169.846 61.211,170.000 60.684,170.000 60.248 C 170.000 59.349,170.722 56.898,171.251 56.000 C 171.446 55.670,171.713 55.130,171.845 54.800 C 173.823 49.863,175.770 48.632,180.072 49.601 C 182.185 50.077,184.646 50.449,190.400 51.164 C 192.050 51.369,194.210 51.725,195.200 51.954 C 196.967 52.363,199.420 52.740,205.800 53.583 C 209.799 54.111,216.525 54.111,220.181 53.582 C 228.358 52.400,233.313 52.986,235.293 55.367 C 235.674 55.825,236.169 56.417,236.393 56.683 C 236.617 56.949,236.800 57.613,236.800 58.160 C 236.800 58.706,236.980 59.264,237.200 59.400 C 237.420 59.536,237.600 60.346,237.600 61.200 C 237.600 62.054,237.770 62.858,237.977 62.986 C 238.184 63.114,238.463 64.069,238.597 65.109 C 238.731 66.149,239.012 67.313,239.220 67.695 C 239.429 68.077,239.600 68.853,239.600 69.421 C 239.600 69.988,239.784 70.796,240.008 71.216 C 241.494 73.992,242.357 84.811,241.802 93.704 C 241.584 97.209,241.634 98.560,242.002 99.002 C 242.273 99.329,242.400 99.957,242.285 100.398 C 242.169 100.839,242.238 101.200,242.437 101.200 C 242.637 101.200,242.800 100.930,242.800 100.600 C 242.800 100.270,242.939 100.000,243.109 100.000 C 243.279 100.000,243.757 99.370,244.172 98.600 C 244.587 97.830,245.099 97.200,245.310 97.200 C 245.521 97.200,245.607 96.750,245.502 96.200 C 245.342 95.362,245.464 95.200,246.255 95.200 C 246.898 95.200,247.200 94.970,247.200 94.480 C 247.200 94.084,247.418 93.542,247.685 93.275 C 249.462 91.498,249.449 62.489,247.670 60.710 C 247.412 60.452,247.200 59.556,247.200 58.720 C 247.200 57.884,247.020 57.200,246.800 57.200 C 246.580 57.200,246.400 56.748,246.400 56.195 C 246.400 55.642,246.239 54.877,246.043 54.495 C 245.847 54.113,245.482 53.287,245.233 52.659 C 244.867 51.737,244.672 51.609,244.214 51.989 C 243.730 52.390,243.717 52.271,244.124 51.167 C 244.499 50.148,244.494 49.839,244.100 49.704 C 243.825 49.610,243.600 49.098,243.600 48.567 C 243.600 47.974,243.368 47.600,243.000 47.600 C 242.583 47.600,242.400 47.180,242.400 46.224 C 242.400 45.467,242.220 44.736,242.000 44.600 C 241.780 44.464,241.600 44.003,241.600 43.576 C 241.600 43.149,241.440 42.800,241.243 42.800 C 241.047 42.800,240.774 42.350,240.636 41.800 C 240.498 41.250,240.208 40.800,239.992 40.800 C 239.777 40.800,239.600 40.607,239.600 40.371 C 239.600 39.905,238.615 38.800,238.200 38.800 C 237.785 38.800,236.800 37.695,236.800 37.229 C 236.800 36.993,236.530 36.800,236.200 36.800 C 235.870 36.800,235.600 36.620,235.600 36.400 C 235.600 36.180,235.240 36.000,234.800 36.000 C 234.356 36.000,234.000 35.733,234.000 35.400 C 234.000 35.070,233.730 34.800,233.400 34.800 C 233.070 34.800,232.800 34.620,232.800 34.400 C 232.800 34.180,232.440 34.000,232.000 34.000 C 231.560 34.000,231.200 33.820,231.200 33.600 C 231.200 33.380,230.930 33.200,230.600 33.200 C 230.270 33.200,230.000 33.032,230.000 32.827 C 230.000 32.622,229.645 32.341,229.210 32.203 C 228.776 32.065,227.836 31.333,227.122 30.576 C 226.408 29.819,225.581 29.200,225.285 29.200 C 224.989 29.200,224.152 28.570,223.426 27.800 C 222.700 27.030,221.793 26.400,221.410 26.400 C 221.028 26.400,220.361 25.950,219.929 25.400 C 219.496 24.850,218.795 24.400,218.371 24.400 C 217.947 24.400,217.600 24.220,217.600 24.000 C 217.600 23.780,216.989 23.600,216.243 23.600 C 215.405 23.600,214.797 23.370,214.655 23.000 C 214.498 22.589,213.855 22.400,212.613 22.400 C 211.616 22.400,210.800 22.220,210.800 22.000 C 210.800 21.417,195.497 21.463,194.912 22.048 M233.600 35.600 C 233.600 35.820,233.195 35.997,232.700 35.994 C 231.972 35.989,231.915 35.914,232.400 35.600 C 233.176 35.099,233.600 35.099,233.600 35.600 M154.800 72.800 C 154.800 73.680,154.620 74.400,154.400 74.400 C 153.957 74.400,153.843 71.890,154.267 71.467 C 154.734 71.000,154.800 71.165,154.800 72.800 M152.800 156.000 C 152.800 156.220,152.530 156.400,152.200 156.400 C 151.870 156.400,151.600 156.670,151.600 157.000 C 151.600 157.333,151.244 157.600,150.800 157.600 C 150.360 157.600,150.000 157.780,150.000 158.000 C 150.000 158.220,149.730 158.400,149.400 158.400 C 149.070 158.400,148.800 158.580,148.800 158.800 C 148.800 159.020,148.125 159.889,147.300 160.731 C 145.444 162.626,144.000 164.333,144.000 164.632 C 144.000 164.992,142.892 166.000,142.496 166.000 C 142.298 166.000,141.899 166.441,141.611 166.980 C 141.323 167.518,140.707 168.018,140.243 168.089 C 139.779 168.161,139.443 168.433,139.495 168.695 C 139.550 168.967,139.335 169.073,138.995 168.943 C 138.620 168.799,138.400 168.952,138.400 169.357 C 138.400 169.776,138.052 170.000,137.400 170.000 C 136.850 170.000,136.400 170.180,136.400 170.400 C 136.400 170.620,136.128 170.800,135.795 170.800 C 135.184 170.800,134.895 170.916,132.468 172.132 C 131.735 172.500,130.867 172.800,130.539 172.800 C 129.892 172.800,128.800 173.733,128.800 174.286 C 128.800 174.474,128.428 174.629,127.973 174.629 C 127.201 174.629,127.193 174.594,127.850 174.114 C 128.508 173.633,128.508 173.600,127.864 173.600 C 127.485 173.600,127.071 173.870,126.945 174.200 C 126.818 174.530,126.290 174.800,125.771 174.800 C 124.847 174.800,123.782 176.049,124.281 176.547 C 124.420 176.686,124.211 176.800,123.818 176.800 C 123.227 176.800,123.189 176.695,123.600 176.200 C 124.021 175.692,123.935 175.600,123.036 175.600 C 122.453 175.600,121.874 175.862,121.751 176.183 C 121.599 176.580,121.178 176.696,120.429 176.546 C 119.716 176.403,119.108 176.549,118.694 176.963 C 118.344 177.313,117.605 177.600,117.052 177.600 C 116.499 177.600,115.936 177.780,115.800 178.000 C 115.664 178.220,115.045 178.400,114.425 178.400 C 113.805 178.400,113.074 178.670,112.800 179.000 C 112.526 179.330,111.694 179.600,110.951 179.600 C 110.208 179.600,109.600 179.780,109.600 180.000 C 109.600 180.220,108.970 180.400,108.200 180.400 C 107.430 180.400,106.800 180.580,106.800 180.800 C 106.800 181.020,106.254 181.200,105.587 181.200 C 104.879 181.200,104.279 181.449,104.145 181.800 C 104.004 182.167,103.397 182.400,102.581 182.400 C 101.847 182.400,101.136 182.580,101.000 182.800 C 100.864 183.020,100.133 183.200,99.376 183.200 C 98.420 183.200,98.000 183.383,98.000 183.800 C 98.000 184.244,97.533 184.400,96.200 184.400 C 95.210 184.400,94.400 184.580,94.400 184.800 C 94.400 185.020,93.770 185.200,93.000 185.200 C 92.230 185.200,91.600 185.380,91.600 185.600 C 91.600 185.820,90.964 186.000,90.187 186.000 C 89.301 186.000,88.689 186.223,88.545 186.600 C 88.388 187.007,87.750 187.200,86.557 187.200 C 85.591 187.200,84.800 187.380,84.800 187.600 C 84.800 187.820,84.035 188.006,83.100 188.013 C 82.165 188.020,81.051 188.290,80.624 188.613 C 80.196 188.936,79.431 189.200,78.924 189.200 C 78.416 189.200,78.000 189.380,78.000 189.600 C 78.000 189.820,77.550 190.000,77.000 190.000 C 76.450 190.000,76.000 190.180,76.000 190.400 C 76.000 190.620,75.736 190.800,75.414 190.800 C 74.626 190.800,72.400 193.015,72.400 193.799 C 72.400 194.143,72.141 194.524,71.826 194.646 C 71.453 194.789,71.259 195.428,71.273 196.465 C 71.285 197.345,71.094 198.266,70.848 198.512 C 70.601 198.759,70.400 199.623,70.400 200.434 C 70.400 201.245,70.131 202.424,69.802 203.054 C 69.474 203.684,69.204 204.875,69.202 205.700 C 69.201 206.525,69.020 207.200,68.800 207.200 C 68.580 207.200,68.400 208.100,68.400 209.200 C 68.400 210.300,68.220 211.200,68.000 211.200 C 67.780 211.200,67.600 211.933,67.600 212.829 C 67.600 213.743,67.337 214.720,67.000 215.057 C 66.670 215.387,66.400 216.354,66.400 217.205 C 66.400 218.056,66.220 218.864,66.000 219.000 C 65.780 219.136,65.600 220.047,65.600 221.024 C 65.600 222.001,65.420 222.800,65.200 222.800 C 64.980 222.800,64.800 223.417,64.800 224.171 C 64.800 224.926,64.530 225.813,64.200 226.143 C 63.870 226.473,63.600 227.386,63.600 228.171 C 63.600 228.957,63.420 229.600,63.200 229.600 C 62.980 229.600,62.800 230.391,62.800 231.357 C 62.800 232.550,62.607 233.188,62.200 233.345 C 61.806 233.496,61.600 234.120,61.600 235.164 C 61.600 236.038,61.420 236.864,61.200 237.000 C 60.980 237.136,60.800 238.047,60.800 239.024 C 60.800 240.001,60.620 240.800,60.400 240.800 C 60.180 240.800,60.000 241.713,60.000 242.829 C 60.000 244.098,59.776 245.082,59.400 245.457 C 58.520 246.337,58.520 257.670,59.400 258.400 C 59.827 258.754,60.000 259.692,60.000 261.649 C 60.000 263.216,60.172 264.400,60.400 264.400 C 60.620 264.400,60.800 265.379,60.800 266.576 C 60.800 267.773,60.980 268.864,61.200 269.000 C 61.420 269.136,61.600 270.012,61.600 270.947 C 61.600 271.882,61.864 272.996,62.187 273.424 C 62.510 273.851,62.780 275.044,62.787 276.076 C 62.794 277.108,62.980 278.064,63.200 278.200 C 63.420 278.336,63.600 279.571,63.600 280.944 C 63.600 282.317,63.784 283.624,64.008 283.848 C 64.233 284.073,64.530 285.465,64.667 286.941 C 64.805 288.418,65.072 289.721,65.259 289.836 C 65.447 289.952,65.600 291.196,65.600 292.600 C 65.600 294.004,65.780 295.264,66.000 295.400 C 66.220 295.536,66.400 296.695,66.400 297.975 C 66.400 299.555,66.592 300.462,67.000 300.800 C 67.417 301.146,67.600 302.067,67.600 303.825 C 67.600 305.215,67.780 306.464,68.000 306.600 C 68.220 306.736,68.400 307.726,68.400 308.800 C 68.400 309.874,68.556 310.849,68.747 310.967 C 68.938 311.085,69.190 312.035,69.308 313.078 C 69.425 314.121,69.719 315.040,69.961 315.120 C 70.202 315.201,70.400 316.152,70.400 317.233 C 70.400 318.315,70.580 319.200,70.800 319.200 C 71.020 319.200,71.200 320.010,71.200 321.000 C 71.200 322.333,71.356 322.800,71.800 322.800 C 72.243 322.800,72.400 323.264,72.400 324.576 C 72.400 325.553,72.580 326.464,72.800 326.600 C 73.020 326.736,73.200 327.366,73.200 328.000 C 73.200 328.634,73.360 329.251,73.555 329.372 C 73.750 329.493,74.028 330.223,74.173 330.996 C 74.318 331.768,74.608 332.400,74.818 332.400 C 75.028 332.400,75.200 333.030,75.200 333.800 C 75.200 334.570,75.380 335.200,75.600 335.200 C 75.820 335.200,76.000 335.836,76.000 336.613 C 76.000 337.499,76.223 338.111,76.600 338.255 C 76.970 338.397,77.200 339.005,77.200 339.843 C 77.200 340.589,77.380 341.200,77.600 341.200 C 77.820 341.200,78.000 341.830,78.000 342.600 C 78.000 343.567,78.182 344.000,78.590 344.000 C 79.032 344.000,79.120 344.300,78.941 345.194 C 78.764 346.078,78.871 346.452,79.351 346.637 C 79.708 346.774,80.000 347.316,80.000 347.843 C 80.000 348.369,80.180 348.800,80.400 348.800 C 80.620 348.800,80.800 349.264,80.800 349.832 C 80.800 350.770,80.909 350.840,82.000 350.600 C 83.351 350.303,83.540 350.636,82.500 351.481 C 81.991 351.895,81.936 352.107,82.300 352.258 C 82.575 352.373,82.800 352.645,82.800 352.862 C 82.800 353.389,83.833 354.400,84.371 354.400 C 84.607 354.400,84.800 354.593,84.800 354.829 C 84.800 355.295,85.785 356.400,86.200 356.400 C 86.341 356.400,86.708 356.625,87.015 356.900 C 88.216 357.977,88.776 358.400,89.001 358.400 C 89.131 358.400,89.686 358.850,90.236 359.400 C 90.786 359.950,91.498 360.400,91.818 360.400 C 92.138 360.400,92.400 360.580,92.400 360.800 C 92.400 361.020,92.670 361.200,93.000 361.200 C 93.330 361.200,93.600 361.020,93.600 360.800 C 93.600 360.580,93.816 360.400,94.080 360.400 C 94.453 360.400,94.453 360.507,94.080 360.880 C 93.375 361.585,93.493 362.000,94.400 362.000 C 94.844 362.000,95.200 362.267,95.200 362.600 C 95.200 362.938,95.558 363.200,96.018 363.200 C 96.468 363.200,97.286 363.650,97.836 364.200 C 98.386 364.750,99.098 365.200,99.418 365.200 C 99.738 365.200,100.000 365.359,100.000 365.554 C 100.000 365.749,100.630 366.208,101.400 366.573 C 102.170 366.939,102.800 367.409,102.800 367.619 C 102.800 367.828,102.988 368.000,103.218 368.000 C 104.841 368.000,105.497 369.795,105.670 374.705 C 105.785 377.959,105.703 379.523,105.421 379.474 C 105.159 379.428,104.956 380.762,104.883 382.997 C 104.819 384.975,104.594 386.766,104.383 386.977 C 104.172 387.188,104.000 389.448,104.000 392.000 C 104.000 395.179,103.843 396.797,103.500 397.140 C 103.015 397.624,102.644 401.676,102.158 411.791 C 102.042 414.206,101.760 416.407,101.531 416.683 C 101.298 416.963,101.090 419.457,101.058 422.353 C 101.026 425.197,100.865 427.440,100.700 427.338 C 100.535 427.236,100.389 427.298,100.377 427.476 C 99.759 435.994,99.512 439.951,99.334 444.171 C 99.180 447.819,98.952 449.505,98.558 449.899 C 98.143 450.314,98.000 451.680,98.000 455.229 C 98.000 458.143,97.844 460.000,97.600 460.000 C 97.356 460.000,97.200 461.856,97.200 464.767 C 97.200 468.224,97.063 469.579,96.700 469.700 C 96.339 469.820,96.200 471.136,96.200 474.433 C 96.200 477.649,96.052 479.095,95.700 479.320 C 95.348 479.545,95.200 480.988,95.200 484.196 C 95.200 486.802,95.029 488.859,94.800 489.000 C 94.579 489.136,94.394 490.985,94.387 493.124 C 94.378 495.897,94.207 497.221,93.787 497.776 C 93.375 498.322,93.200 499.595,93.200 502.053 C 93.200 503.978,93.020 505.664,92.800 505.800 C 92.580 505.936,92.400 507.711,92.400 509.744 C 92.400 511.999,92.220 513.620,91.939 513.901 C 91.662 514.178,91.404 516.399,91.290 519.481 C 91.187 522.296,90.960 524.780,90.787 525.000 C 90.614 525.220,90.453 527.425,90.430 529.900 L 90.389 534.400 91.623 534.400 C 92.302 534.400,93.127 534.670,93.457 535.000 C 93.787 535.330,94.754 535.600,95.605 535.600 C 96.456 535.600,97.264 535.780,97.400 536.000 C 97.536 536.220,98.627 536.400,99.824 536.400 C 101.021 536.400,102.000 536.580,102.000 536.800 C 102.000 537.020,102.996 537.200,104.213 537.200 C 105.810 537.200,106.489 537.367,106.655 537.800 C 106.817 538.220,107.472 538.400,108.843 538.400 C 109.919 538.400,110.800 538.580,110.800 538.800 C 110.800 539.020,111.167 539.200,111.616 539.200 C 112.418 539.200,112.428 539.342,112.214 547.500 C 112.095 552.065,111.901 559.715,111.784 564.500 L 111.570 573.200 203.785 573.200 C 293.870 573.200,296.000 573.183,296.000 572.446 C 296.000 572.031,296.269 571.176,296.598 570.546 C 297.084 569.613,297.196 567.413,297.198 558.724 C 297.199 552.040,297.350 547.955,297.600 547.800 C 297.833 547.656,298.000 545.396,298.000 542.376 C 298.000 537.519,298.048 537.200,298.776 537.200 C 299.203 537.200,299.664 537.020,299.800 536.800 C 299.936 536.580,300.656 536.400,301.400 536.400 C 302.144 536.400,302.864 536.220,303.000 536.000 C 303.136 535.780,303.764 535.600,304.395 535.600 C 305.026 535.600,305.813 535.330,306.143 535.000 C 306.473 534.670,307.116 534.400,307.571 534.400 C 308.027 534.400,308.400 534.220,308.400 534.000 C 308.400 533.780,308.766 533.600,309.213 533.600 C 309.659 533.600,310.129 533.330,310.255 533.000 C 310.382 532.670,310.659 532.400,310.871 532.400 C 311.540 532.400,312.400 531.291,312.400 530.429 C 312.400 529.973,312.580 529.600,312.800 529.600 C 313.029 529.600,313.200 528.400,313.200 526.800 C 313.200 525.200,313.029 524.000,312.800 524.000 C 312.580 524.000,312.400 523.100,312.400 522.000 C 312.400 520.900,312.220 520.000,312.000 520.000 C 311.774 520.000,311.600 518.862,311.600 517.387 C 311.600 515.434,311.449 514.717,311.000 514.545 C 310.537 514.367,310.400 513.595,310.400 511.157 C 310.400 509.421,310.234 508.000,310.030 508.000 C 309.827 508.000,309.564 506.605,309.446 504.900 C 308.909 497.179,308.583 494.661,308.100 494.500 C 307.753 494.384,307.600 493.309,307.600 490.990 C 307.600 489.152,307.420 487.536,307.200 487.400 C 306.980 487.264,306.800 485.916,306.800 484.405 C 306.800 482.496,306.617 481.474,306.200 481.057 C 305.788 480.646,305.600 479.632,305.600 477.829 C 305.600 476.343,305.426 475.200,305.200 475.200 C 304.968 475.200,304.800 473.893,304.800 472.080 C 304.800 470.364,304.638 468.789,304.441 468.580 C 304.243 468.371,304.010 466.862,303.923 465.228 C 303.826 463.386,303.582 462.194,303.283 462.094 C 302.964 461.988,302.800 460.928,302.800 458.967 C 302.800 457.256,302.631 456.000,302.400 456.000 C 302.167 456.000,302.000 454.673,302.000 452.820 C 302.000 450.540,301.844 449.549,301.449 449.320 C 301.079 449.105,300.814 447.816,300.643 445.400 C 300.503 443.420,300.235 440.450,300.049 438.800 C 299.863 437.150,299.488 433.820,299.216 431.400 C 298.944 428.980,298.573 426.908,298.393 426.796 C 298.212 426.684,297.968 425.064,297.850 423.196 C 297.375 415.640,296.948 411.988,296.486 411.526 C 296.174 411.214,296.000 409.706,296.000 407.320 C 296.000 405.262,295.832 403.600,295.624 403.600 C 295.416 403.600,295.159 401.485,295.050 398.900 C 294.691 390.322,294.089 383.830,293.637 383.679 C 293.339 383.580,293.200 380.752,293.200 374.767 C 293.200 369.189,293.054 366.000,292.800 366.000 C 292.267 366.000,292.267 357.329,292.800 357.000 C 293.020 356.864,293.200 356.313,293.200 355.776 C 293.200 355.239,293.020 354.800,292.800 354.800 C 292.565 354.800,292.400 353.400,292.400 351.400 C 292.400 349.530,292.315 348.000,292.212 348.000 C 291.911 348.000,289.057 349.634,288.400 350.182 C 288.070 350.458,287.215 350.934,286.500 351.239 C 285.785 351.545,285.200 351.923,285.200 352.080 C 285.200 352.236,284.568 352.482,283.796 352.627 C 283.023 352.772,282.293 353.050,282.172 353.245 C 282.051 353.440,281.423 353.600,280.776 353.600 C 280.129 353.600,279.600 353.780,279.600 354.000 C 279.600 354.220,278.721 354.400,277.646 354.400 C 276.571 354.400,275.176 354.674,274.546 355.009 C 273.230 355.708,248.410 355.826,247.100 355.139 C 246.210 354.672,246.154 351.880,247.002 350.254 C 247.415 349.463,247.600 347.884,247.600 345.154 C 247.600 342.785,247.760 341.200,248.000 341.200 C 248.240 341.200,248.400 339.615,248.400 337.244 C 248.400 332.314,249.041 331.110,251.260 331.869 C 251.997 332.121,253.451 332.444,254.491 332.587 C 255.531 332.729,256.486 333.016,256.614 333.223 C 256.742 333.430,257.917 333.600,259.224 333.600 C 260.541 333.600,261.600 333.778,261.600 334.000 C 261.600 334.220,262.118 334.400,262.751 334.400 C 263.384 334.400,264.126 334.670,264.400 335.000 C 264.674 335.330,265.495 335.600,266.225 335.600 C 266.955 335.600,267.664 335.780,267.800 336.000 C 267.936 336.220,268.656 336.400,269.400 336.400 C 270.144 336.400,270.864 336.580,271.000 336.800 C 271.136 337.020,271.552 337.201,271.924 337.202 C 272.296 337.204,273.116 337.474,273.746 337.802 C 274.376 338.131,275.152 338.400,275.471 338.400 C 276.367 338.400,279.986 339.653,280.230 340.048 C 280.349 340.242,280.966 340.400,281.600 340.400 C 282.234 340.400,282.864 340.580,283.000 340.800 C 283.136 341.020,283.676 341.200,284.200 341.200 C 284.724 341.200,285.258 341.370,285.386 341.577 C 285.514 341.784,286.424 342.075,287.409 342.222 C 288.394 342.370,289.200 342.650,289.200 342.845 C 289.200 343.040,289.470 343.200,289.800 343.200 C 290.130 343.200,290.400 343.380,290.400 343.600 C 290.400 343.820,290.746 344.000,291.169 344.000 C 291.592 344.000,292.473 344.450,293.127 345.000 C 293.781 345.550,294.515 346.000,294.758 346.000 C 295.001 346.000,295.200 346.180,295.200 346.400 C 295.200 346.656,298.743 346.800,305.029 346.800 C 313.232 346.800,314.956 346.899,315.457 347.400 C 315.926 347.869,317.140 348.000,321.005 348.000 C 323.872 348.000,326.057 348.168,326.200 348.400 C 326.336 348.620,327.787 348.800,329.424 348.800 C 331.141 348.800,332.400 348.631,332.400 348.400 C 332.400 348.180,333.114 348.000,333.987 348.000 C 335.333 348.000,335.535 347.893,335.313 347.300 C 335.083 346.687,335.134 346.668,335.725 347.149 C 336.165 347.507,336.400 347.541,336.400 347.249 C 336.400 347.002,336.640 346.800,336.933 346.800 C 337.415 346.800,338.039 346.236,340.433 343.633 C 340.855 343.175,341.200 342.697,341.200 342.571 C 341.200 342.179,342.322 341.200,342.771 341.200 C 343.007 341.200,343.200 341.012,343.200 340.782 C 343.200 340.552,343.642 339.922,344.182 339.382 C 344.722 338.842,345.352 338.400,345.582 338.400 C 345.812 338.400,346.000 338.207,346.000 337.971 C 346.000 337.505,346.985 336.400,347.400 336.400 C 347.733 336.400,348.800 335.334,348.800 335.002 C 348.800 334.861,349.430 334.152,350.200 333.426 C 350.970 332.700,351.600 331.911,351.600 331.673 C 351.600 331.436,352.050 330.756,352.600 330.162 C 353.181 329.535,353.600 328.605,353.600 327.942 C 353.600 327.314,353.780 326.800,354.000 326.800 C 354.220 326.800,354.400 325.977,354.400 324.971 C 354.400 323.879,354.642 322.901,355.000 322.543 C 355.448 322.095,355.600 320.993,355.600 318.195 C 355.600 316.128,355.779 314.336,356.000 314.200 C 356.220 314.064,356.400 312.538,356.400 310.810 C 356.400 308.802,356.566 307.611,356.859 307.514 C 357.713 307.229,358.908 291.600,358.076 291.600 C 357.871 291.600,357.608 290.751,357.491 289.713 C 357.374 288.675,357.081 287.760,356.839 287.680 C 356.598 287.599,356.400 287.098,356.400 286.567 C 356.400 286.035,356.220 285.600,356.000 285.600 C 355.780 285.600,355.600 285.234,355.600 284.787 C 355.600 284.341,355.330 283.871,355.000 283.745 C 354.670 283.618,354.400 283.174,354.400 282.757 C 354.400 282.341,354.220 282.000,354.000 282.000 C 353.780 282.000,353.600 281.543,353.600 280.985 C 353.600 280.165,353.427 279.992,352.700 280.085 C 352.205 280.148,351.800 280.020,351.800 279.800 C 351.800 279.580,352.025 279.425,352.300 279.456 C 352.976 279.531,352.930 278.988,352.200 278.257 C 351.870 277.927,351.600 277.284,351.600 276.829 C 351.600 276.373,351.420 276.000,351.200 276.000 C 350.980 276.000,350.800 275.724,350.800 275.387 C 350.800 275.051,350.530 274.671,350.200 274.545 C 349.870 274.418,349.600 274.099,349.600 273.836 C 349.600 273.188,347.530 269.034,347.124 268.867 C 346.946 268.793,346.800 268.539,346.800 268.301 C 346.800 267.580,345.468 264.800,345.123 264.800 C 344.945 264.800,344.800 264.565,344.800 264.279 C 344.800 263.600,342.745 259.440,342.324 259.267 C 342.146 259.193,342.000 258.698,342.000 258.167 C 342.000 257.635,341.840 257.200,341.643 257.200 C 341.447 257.200,341.174 256.750,341.036 256.200 C 340.898 255.650,340.608 255.200,340.392 255.200 C 340.177 255.200,340.000 254.928,340.000 254.595 C 340.000 254.262,339.840 253.677,339.644 253.295 C 339.449 252.913,338.958 251.925,338.553 251.100 C 338.149 250.275,337.679 249.600,337.509 249.600 C 337.339 249.600,337.200 249.150,337.200 248.600 C 337.200 248.050,337.020 247.600,336.800 247.600 C 336.580 247.600,336.400 247.326,336.400 246.992 C 336.400 246.658,335.980 245.713,335.466 244.892 C 334.953 244.071,334.198 242.635,333.789 241.700 C 333.380 240.765,332.901 240.000,332.723 240.000 C 332.545 240.000,332.400 239.765,332.400 239.479 C 332.400 238.800,330.345 234.640,329.924 234.467 C 329.746 234.393,329.587 234.033,329.571 233.667 C 329.555 233.300,329.197 232.460,328.775 231.800 C 328.354 231.140,327.895 230.330,327.756 230.000 C 326.587 227.224,325.349 224.800,325.101 224.800 C 324.935 224.800,324.787 224.485,324.771 224.100 C 324.755 223.715,324.397 222.860,323.975 222.200 C 323.554 221.540,323.095 220.730,322.956 220.400 C 321.787 217.624,320.549 215.200,320.301 215.200 C 320.135 215.200,320.000 214.958,320.000 214.661 C 320.000 213.974,318.867 211.688,318.375 211.384 C 318.169 211.257,318.000 210.803,318.000 210.376 C 318.000 209.949,317.820 209.600,317.600 209.600 C 317.380 209.600,317.200 209.328,317.200 208.995 C 317.200 208.228,316.355 206.699,315.700 206.280 C 315.425 206.104,315.200 205.620,315.200 205.204 C 315.200 204.788,315.020 204.336,314.800 204.200 C 314.580 204.064,314.400 203.616,314.400 203.205 C 314.400 202.794,314.130 202.187,313.800 201.857 C 313.470 201.527,313.200 200.884,313.200 200.429 C 313.200 199.973,313.020 199.600,312.800 199.600 C 312.580 199.600,312.400 199.131,312.400 198.557 C 312.400 197.850,312.228 197.581,311.864 197.720 C 311.569 197.833,311.074 197.746,310.764 197.525 C 310.317 197.208,310.346 197.171,310.900 197.350 C 311.791 197.636,311.866 196.319,311.000 195.600 C 310.670 195.326,310.400 194.854,310.400 194.551 C 310.400 194.248,310.220 194.000,310.000 194.000 C 309.780 194.000,309.599 193.775,309.597 193.500 C 309.593 192.937,307.808 192.000,306.740 192.000 C 306.355 192.000,305.896 191.750,305.720 191.444 C 305.353 190.807,303.120 190.463,297.300 190.149 C 295.045 190.027,293.200 189.764,293.200 189.564 C 293.200 189.364,293.009 189.200,292.776 189.200 C 292.543 189.200,292.464 189.380,292.600 189.600 C 292.736 189.820,292.672 190.000,292.457 190.000 C 292.242 190.000,292.002 189.807,291.923 189.570 C 291.845 189.334,290.655 189.038,289.279 188.914 C 287.903 188.789,286.682 188.532,286.565 188.343 C 286.448 188.155,285.103 188.000,283.576 188.000 C 281.992 188.000,280.800 187.828,280.800 187.600 C 280.800 187.374,279.625 187.194,278.100 187.187 C 276.363 187.179,275.123 186.965,274.624 186.587 C 274.133 186.216,272.926 186.000,271.347 186.000 C 269.972 186.000,268.736 185.820,268.600 185.600 C 268.464 185.380,267.114 185.200,265.600 185.200 C 264.086 185.200,262.736 185.020,262.600 184.800 C 262.464 184.580,261.393 184.400,260.219 184.400 C 258.692 184.400,258.020 184.230,257.855 183.800 C 257.698 183.389,257.055 183.200,255.813 183.200 C 254.816 183.200,254.000 183.020,254.000 182.800 C 254.000 182.580,253.177 182.400,252.171 182.400 C 251.079 182.400,250.101 182.158,249.743 181.800 C 249.413 181.470,248.706 181.200,248.171 181.200 C 247.637 181.200,247.200 181.020,247.200 180.800 C 247.200 180.580,246.570 180.400,245.800 180.400 C 245.030 180.400,244.400 180.220,244.400 180.000 C 244.400 179.366,243.536 179.535,242.994 180.276 C 242.559 180.871,242.500 180.816,242.500 179.820 C 242.500 179.168,242.210 178.525,241.817 178.305 C 240.923 177.805,238.800 175.578,238.800 175.141 C 238.800 174.953,238.564 174.800,238.275 174.800 C 237.986 174.800,237.502 174.170,237.200 173.400 C 236.898 172.630,236.504 172.000,236.325 172.000 C 236.146 172.000,236.000 171.730,236.000 171.400 C 236.000 171.070,235.730 170.800,235.400 170.800 C 235.070 170.800,234.800 170.485,234.800 170.100 C 234.799 169.492,234.344 168.810,232.408 166.517 C 232.184 166.251,232.000 165.950,232.000 165.848 C 232.000 165.745,231.447 165.108,230.770 164.432 C 229.358 163.019,228.589 163.354,228.145 165.577 C 228.010 166.250,227.743 166.800,227.550 166.800 C 227.357 166.800,227.200 166.999,227.200 167.242 C 227.200 167.485,226.733 168.610,226.163 169.742 C 225.300 171.454,225.158 172.184,225.316 174.084 C 225.446 175.657,225.365 176.342,225.053 176.284 C 224.755 176.229,224.560 177.263,224.483 179.300 C 224.419 181.005,224.194 182.400,223.983 182.400 C 223.767 182.400,223.600 183.982,223.600 186.029 C 223.600 188.679,223.442 189.815,223.015 190.242 C 222.578 190.679,222.431 191.851,222.435 194.874 C 222.438 197.172,222.258 199.102,222.020 199.340 C 221.779 199.581,221.600 201.587,221.600 204.047 C 221.600 206.958,221.450 208.383,221.133 208.489 C 220.830 208.590,220.602 210.215,220.481 213.131 C 220.380 215.598,220.140 217.714,219.948 217.832 C 219.757 217.950,219.600 219.736,219.600 221.800 C 219.600 223.870,219.421 225.664,219.200 225.800 C 218.980 225.936,218.800 227.399,218.800 229.052 C 218.800 231.190,218.627 232.230,218.200 232.657 C 217.775 233.082,217.600 234.118,217.600 236.205 C 217.600 237.826,217.420 239.264,217.200 239.400 C 216.980 239.536,216.800 240.987,216.800 242.624 C 216.800 244.261,216.639 245.600,216.442 245.600 C 216.245 245.600,215.956 247.041,215.800 248.802 C 215.644 250.563,215.355 252.104,215.158 252.226 C 214.961 252.348,214.800 253.776,214.800 255.400 C 214.800 257.024,214.620 258.464,214.400 258.600 C 214.180 258.736,214.000 260.289,214.000 262.052 C 214.000 264.368,213.833 265.424,213.400 265.857 C 212.944 266.313,212.800 267.451,212.800 270.605 C 212.800 272.939,212.625 274.861,212.400 275.000 C 211.826 275.355,211.894 280.934,212.480 281.520 C 212.853 281.893,212.809 282.000,212.280 282.000 C 211.906 282.000,211.600 281.807,211.600 281.571 C 211.600 280.801,210.479 280.000,209.400 280.000 C 208.321 280.000,207.200 279.199,207.200 278.429 C 207.200 278.193,207.020 278.000,206.800 278.000 C 206.580 278.000,206.400 277.383,206.400 276.629 C 206.400 275.874,206.130 274.987,205.800 274.657 C 205.466 274.323,205.200 273.345,205.200 272.452 C 205.200 271.569,205.020 270.736,204.800 270.600 C 204.580 270.464,204.400 269.476,204.400 268.405 C 204.400 267.207,204.169 266.226,203.800 265.857 C 203.426 265.483,203.200 264.501,203.200 263.252 C 203.200 262.149,203.020 261.136,202.800 261.000 C 202.580 260.864,202.400 259.784,202.400 258.600 C 202.400 257.416,202.243 256.350,202.050 256.231 C 201.858 256.112,201.615 254.986,201.511 253.728 C 201.406 252.470,201.114 251.371,200.860 251.287 C 200.583 251.194,200.400 250.202,200.400 248.790 C 200.400 247.502,200.220 246.336,200.000 246.200 C 199.780 246.064,199.600 245.159,199.600 244.189 C 199.600 242.690,199.495 242.459,198.900 242.650 C 198.311 242.840,198.295 242.808,198.800 242.450 C 199.294 242.100,199.312 241.882,198.900 241.218 C 198.625 240.774,198.400 239.519,198.400 238.429 C 198.400 237.339,198.220 236.336,198.000 236.200 C 197.780 236.064,197.600 235.074,197.600 234.000 C 197.600 232.926,197.420 231.936,197.200 231.800 C 196.980 231.664,196.799 230.888,196.798 230.076 C 196.796 229.264,196.526 228.084,196.198 227.454 C 195.869 226.824,195.600 225.530,195.600 224.578 C 195.600 223.626,195.420 222.736,195.200 222.600 C 194.980 222.464,194.800 221.638,194.800 220.764 C 194.800 219.720,194.594 219.096,194.200 218.945 C 193.870 218.818,193.600 218.284,193.600 217.757 C 193.600 217.231,193.420 216.800,193.200 216.800 C 192.980 216.800,192.800 216.545,192.800 216.232 C 192.800 215.519,191.502 213.206,191.100 213.203 C 190.935 213.201,190.800 212.750,190.800 212.200 C 190.800 211.650,190.620 211.200,190.400 211.200 C 190.180 211.200,190.000 210.952,190.000 210.649 C 190.000 210.346,189.730 209.874,189.400 209.600 C 189.070 209.326,188.800 208.764,188.800 208.351 C 188.800 207.938,188.662 207.600,188.494 207.600 C 188.326 207.600,187.873 206.871,187.487 205.981 C 187.101 205.090,186.609 204.471,186.393 204.604 C 186.177 204.738,186.000 204.473,186.000 204.015 C 186.000 203.306,184.302 200.220,183.572 199.600 C 183.442 199.490,183.081 198.815,182.770 198.100 C 182.459 197.385,181.979 196.800,181.702 196.800 C 181.426 196.800,181.200 196.620,181.200 196.400 C 181.200 196.180,180.750 196.000,180.200 196.000 C 179.158 196.000,178.816 195.085,179.662 194.562 C 179.930 194.396,180.016 194.451,179.866 194.693 C 179.725 194.922,179.967 195.203,180.404 195.317 C 180.842 195.431,181.200 195.362,181.200 195.163 C 181.200 194.963,181.048 194.800,180.863 194.800 C 180.678 194.800,180.187 194.170,179.772 193.400 C 179.105 192.162,178.523 191.791,177.500 191.953 C 177.335 191.979,177.200 191.801,177.200 191.557 C 177.200 191.314,177.470 191.218,177.800 191.345 C 178.130 191.471,178.400 191.401,178.400 191.187 C 178.400 190.974,178.220 190.800,178.000 190.800 C 177.780 190.800,177.600 190.440,177.600 190.000 C 177.600 189.556,177.333 189.200,177.000 189.200 C 176.627 189.200,176.400 188.822,176.400 188.200 C 176.400 187.650,176.220 187.200,176.000 187.200 C 175.780 187.200,175.600 186.930,175.600 186.600 C 175.600 186.270,175.432 186.000,175.227 186.000 C 175.022 186.000,174.740 185.640,174.600 185.200 C 174.431 184.667,173.988 184.396,173.273 184.387 C 172.243 184.375,172.231 184.351,172.976 183.787 C 173.404 183.464,173.539 183.200,173.276 183.200 C 173.014 183.200,172.800 182.834,172.800 182.387 C 172.800 181.941,172.530 181.471,172.200 181.345 C 171.870 181.218,171.600 180.774,171.600 180.357 C 171.600 179.941,171.409 179.600,171.176 179.600 C 170.943 179.600,170.881 179.808,171.038 180.062 C 171.211 180.341,171.148 180.415,170.879 180.249 C 170.635 180.098,170.543 179.692,170.676 179.347 C 170.808 179.002,170.755 178.602,170.558 178.460 C 170.361 178.317,169.996 177.840,169.747 177.400 C 169.498 176.960,169.003 176.653,168.647 176.718 C 168.291 176.782,168.000 176.637,168.000 176.394 C 168.000 176.151,168.180 176.064,168.400 176.200 C 168.620 176.336,168.800 176.257,168.800 176.024 C 168.800 175.791,168.620 175.600,168.400 175.600 C 168.180 175.600,168.000 175.234,168.000 174.787 C 168.000 174.341,167.730 173.871,167.400 173.745 C 167.070 173.618,166.800 173.174,166.800 172.757 C 166.800 172.341,166.620 172.000,166.400 172.000 C 166.180 172.000,166.000 171.730,166.000 171.400 C 166.000 171.070,165.820 170.800,165.600 170.800 C 165.380 170.800,165.200 170.543,165.200 170.229 C 165.200 169.914,164.975 169.419,164.700 169.129 C 164.425 168.838,163.930 168.060,163.600 167.400 C 162.996 166.192,162.619 165.640,161.700 164.615 C 161.425 164.308,161.200 163.864,161.200 163.629 C 161.200 163.393,161.020 163.200,160.800 163.200 C 160.580 163.200,160.400 162.943,160.400 162.629 C 160.400 162.314,160.164 161.819,159.875 161.529 C 159.587 161.238,159.093 160.415,158.778 159.700 C 158.463 158.985,158.110 158.400,157.993 158.400 C 157.877 158.400,157.443 157.770,157.028 157.000 C 156.281 155.613,152.800 154.790,152.800 156.000 M188.800 292.320 C 188.800 295.172,188.971 297.211,189.233 297.473 C 189.543 297.783,189.518 298.142,189.143 298.743 C 188.730 299.403,188.723 299.683,189.110 300.070 C 189.699 300.659,189.763 303.052,189.200 303.400 C 188.969 303.542,188.800 305.671,188.800 308.424 L 188.800 313.200 186.680 313.200 C 185.514 313.200,184.389 313.037,184.180 312.839 C 183.971 312.640,182.990 312.384,182.000 312.270 C 178.853 311.906,175.413 311.171,175.020 310.779 C 174.811 310.571,173.787 310.400,172.744 310.400 C 171.701 310.400,170.736 310.220,170.600 310.000 C 170.464 309.780,169.778 309.598,169.076 309.596 C 168.374 309.593,166.916 309.323,165.836 308.996 C 164.756 308.668,163.361 308.400,162.736 308.400 C 162.111 308.400,161.600 308.220,161.600 308.000 C 161.600 307.778,160.533 307.600,159.200 307.600 C 157.867 307.600,156.800 307.422,156.800 307.200 C 156.800 306.980,156.215 306.799,155.500 306.798 C 154.785 306.796,153.684 306.526,153.054 306.198 C 152.424 305.869,151.155 305.600,150.234 305.600 C 149.313 305.600,148.389 305.437,148.180 305.239 C 147.971 305.040,146.990 304.787,146.000 304.677 C 142.016 304.232,140.350 303.553,140.480 302.428 C 140.574 301.626,140.855 301.371,141.761 301.268 C 142.400 301.195,143.177 300.880,143.490 300.568 C 143.802 300.255,144.574 300.000,145.205 300.000 C 145.836 300.000,146.464 299.820,146.600 299.600 C 146.736 299.380,147.456 299.200,148.200 299.200 C 148.944 299.200,149.664 299.020,149.800 298.800 C 149.936 298.580,150.442 298.399,150.924 298.398 C 151.406 298.396,152.316 298.126,152.946 297.798 C 153.576 297.469,154.600 297.200,155.222 297.200 C 155.844 297.200,156.464 297.020,156.600 296.800 C 156.736 296.580,157.362 296.400,157.991 296.400 C 158.620 296.400,159.645 296.148,160.268 295.840 C 161.716 295.124,164.062 294.400,164.934 294.400 C 165.306 294.400,165.923 294.245,166.305 294.056 C 167.547 293.442,171.086 292.400,171.930 292.400 C 172.383 292.400,172.864 292.220,173.000 292.000 C 173.136 291.780,173.822 291.594,174.524 291.587 C 175.226 291.580,176.149 291.310,176.576 290.987 C 177.004 290.664,177.848 290.400,178.453 290.400 C 179.058 290.400,179.664 290.220,179.800 290.000 C 179.936 289.780,180.556 289.600,181.178 289.600 C 181.800 289.600,182.824 289.331,183.454 289.002 C 184.084 288.674,184.994 288.404,185.476 288.402 C 185.958 288.401,186.464 288.220,186.600 288.000 C 186.736 287.780,187.287 287.600,187.824 287.600 L 188.800 287.600 188.800 292.320 M224.400 409.848 C 224.400 410.388,225.860 413.909,226.825 415.695 C 227.031 416.077,227.200 416.757,227.200 417.207 C 227.200 417.657,227.470 418.129,227.800 418.255 C 228.130 418.382,228.400 418.916,228.400 419.443 C 228.400 419.969,228.569 420.400,228.775 420.400 C 228.981 420.400,229.206 420.985,229.275 421.700 C 229.344 422.415,229.598 422.964,229.841 422.920 C 230.103 422.872,230.206 423.235,230.095 423.815 C 229.970 424.468,230.122 424.872,230.554 425.038 C 230.909 425.174,231.200 425.706,231.200 426.219 C 231.200 426.733,231.380 427.264,231.600 427.400 C 231.820 427.536,232.000 428.177,232.000 428.824 C 232.000 429.603,232.203 430.000,232.600 430.000 C 233.019 430.000,233.200 430.422,233.200 431.400 C 233.200 432.627,233.324 432.800,234.200 432.800 C 234.750 432.800,235.200 432.999,235.200 433.243 C 235.200 433.486,234.930 433.582,234.600 433.455 C 234.192 433.299,234.000 433.477,234.000 434.013 C 234.000 434.446,234.180 434.800,234.400 434.800 C 234.620 434.800,234.800 435.430,234.800 436.200 C 234.800 437.178,234.981 437.600,235.400 437.600 C 235.819 437.600,236.000 438.022,236.000 439.000 C 236.000 439.770,236.180 440.400,236.400 440.400 C 236.620 440.400,236.800 440.850,236.800 441.400 C 236.800 442.022,237.027 442.400,237.400 442.400 C 237.817 442.400,238.000 442.820,238.000 443.776 C 238.000 444.533,238.180 445.264,238.400 445.400 C 238.620 445.536,238.800 446.177,238.800 446.824 C 238.800 447.471,238.980 448.000,239.200 448.000 C 239.420 448.000,239.600 448.431,239.600 448.957 C 239.600 449.484,239.870 450.018,240.200 450.145 C 240.547 450.278,240.800 450.876,240.800 451.564 C 240.800 452.218,240.980 452.864,241.200 453.000 C 241.420 453.136,241.600 453.676,241.600 454.200 C 241.600 454.724,241.766 455.255,241.969 455.381 C 242.172 455.506,242.457 456.147,242.601 456.805 C 242.745 457.462,243.029 458.000,243.232 458.000 C 243.434 458.000,243.600 458.529,243.600 459.176 C 243.600 459.823,243.759 460.451,243.952 460.570 C 244.858 461.130,244.703 462.800,243.745 462.800 C 243.225 462.800,242.800 462.962,242.800 463.160 C 242.800 463.358,242.035 463.609,241.100 463.720 C 238.733 463.998,235.475 464.814,235.020 465.242 C 234.811 465.439,233.067 465.600,231.144 465.600 C 229.221 465.600,227.536 465.780,227.400 466.000 C 227.264 466.220,226.726 466.400,226.205 466.400 C 225.684 466.400,224.987 466.670,224.657 467.000 C 224.327 467.330,223.425 467.600,222.652 467.600 C 221.879 467.600,221.136 467.780,221.000 468.000 C 220.864 468.220,219.863 468.400,218.776 468.400 C 217.689 468.400,216.800 468.557,216.800 468.749 C 216.800 468.941,215.863 469.188,214.717 469.298 C 213.571 469.408,212.566 469.701,212.484 469.949 C 212.401 470.197,212.005 470.400,211.605 470.400 C 210.811 470.400,210.834 468.144,211.650 465.975 C 211.862 465.411,211.988 464.254,211.931 463.404 C 211.868 462.463,212.017 461.794,212.313 461.696 C 212.605 461.598,212.800 460.766,212.800 459.616 C 212.800 458.399,213.019 457.516,213.400 457.200 C 213.764 456.898,214.000 456.022,214.000 454.975 C 214.000 454.025,214.180 453.136,214.400 453.000 C 214.620 452.864,214.800 452.133,214.800 451.376 C 214.800 450.619,214.980 450.000,215.200 450.000 C 215.420 450.000,215.600 449.190,215.600 448.200 C 215.600 446.867,215.756 446.400,216.200 446.400 C 216.667 446.400,216.800 445.867,216.800 444.000 C 216.800 442.667,216.978 441.600,217.200 441.600 C 217.429 441.600,217.600 440.390,217.600 438.771 C 217.600 436.790,217.780 435.763,218.200 435.343 C 218.598 434.944,218.800 433.946,218.800 432.371 C 218.800 431.057,218.978 430.000,219.200 430.000 C 219.422 430.000,219.600 428.933,219.600 427.600 C 219.600 426.267,219.778 425.200,220.000 425.200 C 220.220 425.200,220.400 424.322,220.400 423.249 C 220.400 422.003,220.617 421.118,221.000 420.800 C 221.396 420.472,221.600 419.578,221.600 418.175 C 221.600 417.005,221.780 415.936,222.000 415.800 C 222.220 415.664,222.400 414.663,222.400 413.576 C 222.400 412.489,222.572 411.600,222.782 411.600 C 222.992 411.600,223.282 410.972,223.426 410.204 C 223.677 408.864,224.400 408.601,224.400 409.848 M209.600 472.200 C 209.600 472.530,209.431 472.800,209.224 472.800 C 208.719 472.800,208.358 472.175,208.678 471.856 C 209.128 471.405,209.600 471.581,209.600 472.200 M296.674 563.703 C 296.539 567.190,295.999 566.916,296.012 563.367 C 296.020 561.243,296.146 560.407,296.393 560.830 C 296.595 561.176,296.722 562.469,296.674 563.703 " stroke="none" fill="#14141c" fill-rule="evenodd"></path><path id="path2" d="M172.981 53.637 C 172.629 54.318,172.412 54.945,172.499 55.032 C 172.586 55.119,172.956 54.562,173.322 53.795 C 174.144 52.070,173.859 51.938,172.981 53.637 M226.900 53.476 C 227.285 53.576,227.915 53.576,228.300 53.476 C 228.685 53.375,228.370 53.293,227.600 53.293 C 226.830 53.293,226.515 53.375,226.900 53.476 M207.900 54.689 C 208.615 54.778,209.785 54.778,210.500 54.689 C 211.215 54.601,210.630 54.528,209.200 54.528 C 207.770 54.528,207.185 54.601,207.900 54.689 M215.500 54.682 C 215.995 54.778,216.805 54.778,217.300 54.682 C 217.795 54.587,217.390 54.509,216.400 54.509 C 215.410 54.509,215.005 54.587,215.500 54.682 M236.056 58.800 C 236.056 59.130,236.211 59.760,236.400 60.200 C 236.617 60.704,236.744 60.778,236.744 60.400 C 236.744 60.070,236.589 59.440,236.400 59.000 C 236.183 58.496,236.056 58.422,236.056 58.800 M239.268 71.800 C 239.262 72.240,239.411 72.960,239.600 73.400 C 240.038 74.419,240.038 73.368,239.600 72.000 C 239.343 71.196,239.277 71.157,239.268 71.800 M240.040 76.433 C 240.062 77.185,240.230 78.250,240.413 78.800 C 240.629 79.446,240.666 79.020,240.519 77.600 C 240.259 75.083,239.981 74.407,240.040 76.433 M240.966 88.000 C 240.966 92.070,241.025 93.735,241.098 91.700 C 241.171 89.665,241.171 86.335,241.098 84.300 C 241.025 82.265,240.966 83.930,240.966 88.000 M161.632 97.680 C 161.614 98.054,161.285 98.544,160.900 98.768 C 160.515 98.992,160.403 99.181,160.651 99.188 C 161.311 99.206,162.109 98.109,161.869 97.513 C 161.737 97.183,161.652 97.242,161.632 97.680 M240.846 100.476 C 240.821 101.508,240.942 102.441,241.116 102.548 C 241.290 102.656,241.370 102.082,241.293 101.272 C 241.059 98.798,240.895 98.507,240.846 100.476 M185.000 289.386 C 184.120 289.674,182.500 290.203,181.400 290.561 C 180.269 290.929,179.922 291.139,180.600 291.044 C 181.617 290.902,183.629 290.353,186.900 289.326 C 187.704 289.074,187.829 291.586,187.645 304.400 C 187.532 312.325,187.620 312.067,185.200 311.569 C 178.364 310.160,176.552 309.846,176.800 310.113 C 177.021 310.351,181.693 311.397,185.365 312.030 C 188.532 312.577,188.387 313.136,188.394 300.343 C 188.401 287.615,188.586 288.214,185.000 289.386 M177.800 291.600 C 177.029 291.931,177.031 291.945,177.876 291.972 C 178.358 291.987,178.864 291.820,179.000 291.600 C 179.292 291.127,178.901 291.127,177.800 291.600 M172.800 293.012 C 171.150 293.523,170.126 293.954,170.525 293.970 C 171.241 294.000,174.649 293.053,176.200 292.394 C 177.766 291.729,175.782 292.089,172.800 293.012 M165.400 295.167 C 163.420 295.766,161.530 296.380,161.200 296.530 C 160.440 296.877,162.159 296.583,164.000 296.052 C 164.770 295.830,166.210 295.432,167.200 295.169 C 168.190 294.905,169.171 294.534,169.380 294.345 C 169.935 293.841,169.441 293.943,165.400 295.167 M156.600 297.793 C 153.447 298.834,153.718 299.145,156.925 298.167 C 159.603 297.350,160.777 296.852,160.000 296.862 C 159.670 296.866,158.140 297.285,156.600 297.793 M148.431 300.118 C 146.138 300.798,144.482 301.427,144.751 301.517 C 145.021 301.607,145.727 301.501,146.320 301.281 C 146.914 301.062,148.480 300.581,149.800 300.213 C 152.595 299.434,154.077 298.848,153.200 298.868 C 152.870 298.876,150.724 299.438,148.431 300.118 M142.452 302.137 C 141.940 302.755,142.245 303.200,143.181 303.200 C 143.562 303.200,143.829 302.871,143.829 302.400 C 143.829 301.484,143.109 301.346,142.452 302.137 M144.433 303.347 C 144.525 303.428,145.320 303.614,146.200 303.762 C 147.346 303.954,147.630 303.914,147.200 303.621 C 146.660 303.253,144.032 302.993,144.433 303.347 M149.400 304.443 C 152.841 305.199,153.970 305.273,152.000 304.614 C 151.010 304.283,149.660 304.030,149.000 304.052 C 147.922 304.088,147.962 304.128,149.400 304.443 M156.200 305.849 C 157.520 306.162,159.500 306.603,160.600 306.828 C 161.700 307.054,163.351 307.430,164.270 307.663 C 165.188 307.896,166.178 308.007,166.470 307.909 C 166.988 307.734,165.439 307.340,160.600 306.412 C 159.280 306.159,157.647 305.783,156.972 305.576 C 156.296 305.369,155.306 305.218,154.772 305.240 C 154.237 305.262,154.880 305.536,156.200 305.849 M169.200 308.588 C 173.849 309.710,176.012 310.121,176.212 309.921 C 176.326 309.807,175.290 309.500,173.910 309.239 C 172.529 308.977,170.847 308.592,170.172 308.382 C 169.496 308.172,168.506 308.013,167.972 308.029 C 167.437 308.045,167.990 308.297,169.200 308.588 M261.200 335.088 C 261.750 335.187,262.371 335.432,262.580 335.634 C 262.789 335.835,263.239 335.994,263.580 335.986 C 263.973 335.977,263.835 335.763,263.200 335.400 C 262.650 335.086,261.750 334.846,261.200 334.869 L 260.200 334.909 261.200 335.088 M265.800 336.547 C 267.467 337.346,270.361 338.172,270.613 337.920 C 270.789 337.744,269.605 337.353,265.221 336.143 C 264.879 336.048,265.140 336.230,265.800 336.547 M248.928 338.800 C 248.928 340.230,249.001 340.815,249.089 340.100 C 249.178 339.385,249.178 338.215,249.089 337.500 C 249.001 336.785,248.928 337.370,248.928 338.800 M271.600 338.400 C 271.930 338.613,272.470 338.788,272.800 338.788 C 273.333 338.788,273.333 338.745,272.800 338.400 C 272.470 338.187,271.930 338.012,271.600 338.012 C 271.067 338.012,271.067 338.055,271.600 338.400 M274.400 339.400 C 274.950 339.714,275.769 339.978,276.220 339.986 C 276.671 339.994,277.237 340.197,277.478 340.438 C 277.718 340.678,278.249 340.805,278.658 340.719 C 279.098 340.626,278.309 340.204,276.716 339.681 C 273.630 338.668,272.981 338.589,274.400 339.400 M280.400 341.400 C 280.950 341.714,281.769 341.978,282.220 341.986 C 282.671 341.994,283.237 342.197,283.478 342.438 C 283.718 342.678,284.236 342.813,284.628 342.738 C 285.020 342.662,284.160 342.195,282.718 341.700 C 279.724 340.673,278.953 340.573,280.400 341.400 M248.449 342.600 C 248.416 343.040,248.296 343.850,248.183 344.400 L 247.977 345.400 248.406 344.419 C 248.642 343.879,248.761 343.069,248.672 342.619 C 248.513 341.821,248.507 341.821,248.449 342.600 M289.024 344.187 C 289.451 344.510,290.070 344.779,290.400 344.785 C 290.730 344.790,290.484 344.526,289.854 344.198 C 288.395 343.437,288.025 343.432,289.024 344.187 M247.660 350.067 C 247.627 350.654,247.496 351.464,247.370 351.867 C 247.152 352.560,247.165 352.561,247.595 351.890 C 247.846 351.499,247.977 350.689,247.886 350.090 L 247.720 349.000 247.660 350.067 M285.419 350.368 C 285.294 350.571,284.339 351.051,283.296 351.435 C 282.253 351.818,281.222 352.290,281.004 352.482 C 280.415 353.002,283.573 351.831,285.401 350.850 C 286.274 350.383,286.686 350.000,286.318 350.000 C 285.949 350.000,285.545 350.166,285.419 350.368 M276.100 353.876 C 276.485 353.976,277.115 353.976,277.500 353.876 C 277.885 353.775,277.570 353.693,276.800 353.693 C 276.030 353.693,275.715 353.775,276.100 353.876 M248.033 354.144 C 248.125 354.224,249.730 354.390,251.600 354.514 C 253.620 354.647,254.675 354.600,254.200 354.397 C 253.443 354.075,247.680 353.838,248.033 354.144 M260.212 354.382 C 259.990 354.742,271.289 354.828,272.800 354.477 C 273.693 354.270,271.693 354.155,267.273 354.158 C 263.463 354.161,260.286 354.262,260.212 354.382 " stroke="none" fill="#68544c" fill-rule="evenodd"></path><path id="path3" d="M255.100 355.093 C 256.035 355.177,257.565 355.177,258.500 355.093 C 259.435 355.009,258.670 354.940,256.800 354.940 C 254.930 354.940,254.165 355.009,255.100 355.093 " stroke="none" fill="#4c4c4c" fill-rule="evenodd"></path><path id="path4" d="M207.505 54.283 C 208.002 54.379,208.722 54.375,209.105 54.275 C 209.487 54.175,209.080 54.096,208.200 54.101 C 207.320 54.105,207.007 54.187,207.505 54.283 M241.301 85.400 C 241.305 86.280,241.387 86.593,241.483 86.095 C 241.579 85.598,241.575 84.878,241.475 84.495 C 241.375 84.113,241.296 84.520,241.301 85.400 M241.314 90.200 C 241.317 91.300,241.395 91.703,241.487 91.095 C 241.579 90.486,241.577 89.586,241.482 89.095 C 241.387 88.603,241.311 89.100,241.314 90.200 M188.550 293.400 C 188.551 295.820,188.616 296.758,188.696 295.485 C 188.776 294.212,188.775 292.232,188.694 291.085 C 188.614 289.938,188.549 290.980,188.550 293.400 M188.493 299.600 C 188.493 300.370,188.575 300.685,188.676 300.300 C 188.776 299.915,188.776 299.285,188.676 298.900 C 188.575 298.515,188.493 298.830,188.493 299.600 M141.483 302.168 C 141.150 302.992,141.748 303.618,142.800 303.547 C 143.249 303.517,143.230 303.462,142.725 303.329 C 142.353 303.231,141.992 302.757,141.921 302.275 C 141.800 301.453,141.774 301.446,141.483 302.168 M188.551 307.600 C 188.551 310.130,188.616 311.165,188.696 309.900 C 188.775 308.635,188.775 306.565,188.696 305.300 C 188.616 304.035,188.551 305.070,188.551 307.600 M154.400 306.000 C 154.730 306.213,155.360 306.378,155.800 306.366 L 156.600 306.344 155.800 306.000 C 154.604 305.486,153.605 305.486,154.400 306.000 M163.800 308.000 C 164.240 308.189,164.960 308.338,165.400 308.332 C 166.043 308.323,166.004 308.257,165.200 308.000 C 163.832 307.562,162.781 307.562,163.800 308.000 M167.800 308.800 C 168.240 308.989,168.870 309.144,169.200 309.144 C 169.578 309.144,169.504 309.017,169.000 308.800 C 168.560 308.611,167.930 308.456,167.600 308.456 C 167.222 308.456,167.296 308.583,167.800 308.800 M181.000 311.600 C 181.440 311.789,182.070 311.944,182.400 311.944 C 182.778 311.944,182.704 311.817,182.200 311.600 C 181.760 311.411,181.130 311.256,180.800 311.256 C 180.422 311.256,180.496 311.383,181.000 311.600 M259.200 334.155 C 259.200 334.240,259.730 334.387,260.379 334.482 C 261.027 334.577,261.467 334.508,261.355 334.328 C 261.157 334.007,259.200 333.850,259.200 334.155 M248.501 339.800 C 248.505 340.680,248.587 340.993,248.683 340.495 C 248.779 339.998,248.775 339.278,248.675 338.895 C 248.575 338.513,248.496 338.920,248.501 339.800 M247.850 343.250 C 247.709 343.953,247.669 344.602,247.759 344.692 C 247.850 344.783,248.048 344.291,248.200 343.600 C 248.352 342.909,248.393 342.259,248.291 342.158 C 248.189 342.056,247.991 342.547,247.850 343.250 M248.500 354.687 C 249.105 354.778,250.095 354.778,250.700 354.687 C 251.305 354.595,250.810 354.520,249.600 354.520 C 248.390 354.520,247.895 354.595,248.500 354.687 M271.400 354.800 L 269.400 355.074 271.200 355.131 C 272.190 355.162,273.270 355.013,273.600 354.800 C 273.930 354.587,274.020 354.438,273.800 354.469 C 273.580 354.500,272.500 354.649,271.400 354.800 M261.300 355.087 C 261.905 355.178,262.895 355.178,263.500 355.087 C 264.105 354.995,263.610 354.920,262.400 354.920 C 261.190 354.920,260.695 354.995,261.300 355.087 " stroke="none" fill="#3d3535" fill-rule="evenodd"></path><path id="path5" d="M212.300 54.682 C 212.795 54.778,213.605 54.778,214.100 54.682 C 214.595 54.587,214.190 54.509,213.200 54.509 C 212.210 54.509,211.805 54.587,212.300 54.682 M240.914 97.000 C 240.917 98.100,240.995 98.503,241.087 97.895 C 241.179 97.286,241.177 96.386,241.082 95.895 C 240.987 95.403,240.911 95.900,240.914 97.000 M188.493 302.000 C 188.493 302.770,188.575 303.085,188.676 302.700 C 188.776 302.315,188.776 301.685,188.676 301.300 C 188.575 300.915,188.493 301.230,188.493 302.000 M172.600 309.600 C 173.040 309.789,173.670 309.944,174.000 309.944 C 174.378 309.944,174.304 309.817,173.800 309.600 C 173.360 309.411,172.730 309.256,172.400 309.256 C 172.022 309.256,172.096 309.383,172.600 309.600 M261.300 354.676 C 261.685 354.776,262.315 354.776,262.700 354.676 C 263.085 354.575,262.770 354.493,262.000 354.493 C 261.230 354.493,260.915 354.575,261.300 354.676 M265.491 355.089 C 266.201 355.177,267.461 355.179,268.291 355.092 C 269.121 355.005,268.540 354.933,267.000 354.931 C 265.460 354.929,264.781 355.000,265.491 355.089 " stroke="none" fill="#544444" fill-rule="evenodd"></path><path id="path6" d="M220.900 53.876 C 221.285 53.976,221.915 53.976,222.300 53.876 C 222.685 53.775,222.370 53.693,221.600 53.693 C 220.830 53.693,220.515 53.775,220.900 53.876 M211.312 54.295 C 212.364 54.377,213.984 54.376,214.912 54.292 C 215.840 54.208,214.980 54.141,213.000 54.142 C 211.020 54.143,210.260 54.212,211.312 54.295 M241.331 81.400 C 241.333 82.940,241.405 83.521,241.492 82.691 C 241.579 81.861,241.577 80.601,241.489 79.891 C 241.400 79.181,241.329 79.860,241.331 81.400 M241.346 95.800 C 241.347 98.000,241.414 98.849,241.495 97.687 C 241.576 96.524,241.576 94.724,241.493 93.687 C 241.411 92.649,241.345 93.600,241.346 95.800 M186.637 288.340 C 186.499 288.563,186.753 288.633,187.240 288.505 C 187.728 288.378,188.246 288.520,188.471 288.843 C 188.795 289.306,188.834 289.299,188.699 288.800 C 188.512 288.107,186.991 287.768,186.637 288.340 M141.196 302.008 C 140.724 302.889,140.971 303.618,141.724 303.568 C 142.067 303.546,142.061 303.481,141.700 303.335 C 141.029 303.065,141.070 302.587,141.829 301.829 C 142.174 301.483,142.271 301.200,142.043 301.200 C 141.815 301.200,141.433 301.564,141.196 302.008 M149.400 305.200 C 149.840 305.389,150.470 305.544,150.800 305.544 C 151.178 305.544,151.104 305.417,150.600 305.200 C 150.160 305.011,149.530 304.856,149.200 304.856 C 148.822 304.856,148.896 304.983,149.400 305.200 M156.800 306.762 C 157.130 306.953,158.210 307.216,159.200 307.347 C 160.380 307.502,160.656 307.471,160.000 307.257 C 158.345 306.718,156.134 306.376,156.800 306.762 M171.800 310.000 C 172.240 310.189,172.960 310.338,173.400 310.332 C 174.043 310.323,174.004 310.257,173.200 310.000 C 171.832 309.562,170.781 309.562,171.800 310.000 M176.000 310.800 C 176.330 311.013,176.870 311.188,177.200 311.188 C 177.733 311.188,177.733 311.145,177.200 310.800 C 176.870 310.587,176.330 310.412,176.000 310.412 C 175.467 310.412,175.467 310.455,176.000 310.800 M179.800 311.600 C 180.240 311.789,180.870 311.944,181.200 311.944 C 181.578 311.944,181.504 311.817,181.000 311.600 C 180.560 311.411,179.930 311.256,179.600 311.256 C 179.222 311.256,179.296 311.383,179.800 311.600 M188.400 312.388 C 188.400 312.778,187.923 312.846,186.500 312.657 C 185.198 312.485,184.789 312.529,185.200 312.797 C 186.475 313.628,189.545 313.012,188.640 312.107 C 188.508 311.975,188.400 312.101,188.400 312.388 M259.600 333.893 C 260.370 333.983,261.171 334.224,261.380 334.429 C 261.589 334.633,261.938 334.800,262.156 334.800 C 262.375 334.800,262.204 334.536,261.776 334.213 C 261.349 333.890,260.370 333.649,259.600 333.677 L 258.200 333.728 259.600 333.893 M248.501 337.000 C 248.505 337.880,248.587 338.193,248.683 337.695 C 248.779 337.198,248.775 336.478,248.675 336.095 C 248.575 335.713,248.496 336.120,248.501 337.000 M275.946 339.016 C 276.686 339.337,277.406 339.594,277.546 339.586 C 278.066 339.557,275.776 338.428,275.200 338.430 C 274.870 338.431,275.206 338.694,275.946 339.016 M247.042 354.869 C 247.155 355.051,248.362 355.186,249.724 355.168 C 252.617 355.132,252.355 354.928,249.119 354.699 C 247.864 354.610,246.930 354.686,247.042 354.869 M257.500 355.482 C 257.995 355.578,258.805 355.578,259.300 355.482 C 259.795 355.387,259.390 355.309,258.400 355.309 C 257.410 355.309,257.005 355.387,257.500 355.482 " stroke="none" fill="#282428" fill-rule="evenodd"></path><path id="path7" d="M232.400 35.600 C 231.915 35.914,231.972 35.989,232.700 35.994 C 233.195 35.997,233.600 35.820,233.600 35.600 C 233.600 35.099,233.176 35.099,232.400 35.600 M177.105 49.483 C 177.602 49.579,178.322 49.575,178.705 49.475 C 179.087 49.375,178.680 49.296,177.800 49.301 C 176.920 49.305,176.607 49.387,177.105 49.483 M186.200 50.800 C 186.640 50.989,187.270 51.144,187.600 51.144 C 187.978 51.144,187.904 51.017,187.400 50.800 C 186.960 50.611,186.330 50.456,186.000 50.456 C 185.622 50.456,185.696 50.583,186.200 50.800 M193.600 52.000 C 194.968 52.438,196.019 52.438,195.000 52.000 C 194.560 51.811,193.840 51.662,193.400 51.668 C 192.757 51.677,192.796 51.743,193.600 52.000 M222.100 53.476 C 222.485 53.576,223.115 53.576,223.500 53.476 C 223.885 53.375,223.570 53.293,222.800 53.293 C 222.030 53.293,221.715 53.375,222.100 53.476 M171.211 55.787 C 170.943 56.109,170.793 56.580,170.877 56.832 C 170.961 57.084,171.245 56.820,171.507 56.245 C 172.040 55.074,171.937 54.912,171.211 55.787 M154.267 71.467 C 153.843 71.890,153.957 74.400,154.400 74.400 C 154.620 74.400,154.800 73.680,154.800 72.800 C 154.800 71.165,154.734 71.000,154.267 71.467 M240.887 76.000 C 240.883 76.550,241.024 77.450,241.200 78.000 C 241.631 79.344,241.631 77.892,241.200 76.200 C 240.926 75.122,240.894 75.102,240.887 76.000 M241.612 85.200 C 241.612 85.750,241.787 86.470,242.000 86.800 C 242.307 87.275,242.388 87.192,242.388 86.400 C 242.388 85.850,242.213 85.130,242.000 84.800 C 241.693 84.325,241.612 84.408,241.612 85.200 M157.215 92.400 C 157.221 92.730,157.490 93.349,157.813 93.776 C 158.568 94.775,158.563 94.405,157.802 92.946 C 157.474 92.316,157.210 92.070,157.215 92.400 M241.600 100.153 C 241.600 101.570,242.135 102.352,242.596 101.607 C 242.734 101.383,242.682 101.200,242.479 101.200 C 242.277 101.200,242.193 100.771,242.293 100.247 C 242.393 99.723,242.278 99.172,242.038 99.023 C 241.753 98.847,241.600 99.241,241.600 100.153 M127.850 174.114 C 127.193 174.594,127.201 174.629,127.973 174.629 C 128.428 174.629,128.800 174.397,128.800 174.114 C 128.800 173.831,128.744 173.600,128.676 173.600 C 128.609 173.600,128.236 173.831,127.850 174.114 M179.467 194.667 C 178.826 195.307,179.264 195.999,180.300 195.986 L 181.400 195.972 180.487 195.465 C 179.986 195.186,179.701 194.833,179.854 194.679 C 180.008 194.526,180.043 194.400,179.933 194.400 C 179.823 194.400,179.613 194.520,179.467 194.667 M351.478 279.456 C 351.158 279.775,351.519 280.400,352.024 280.400 C 352.231 280.400,352.400 280.130,352.400 279.800 C 352.400 279.181,351.928 279.005,351.478 279.456 M211.600 281.400 C 211.600 281.730,211.892 282.000,212.249 282.000 C 212.780 282.000,212.808 281.891,212.400 281.400 C 212.126 281.070,211.834 280.800,211.751 280.800 C 211.668 280.800,211.600 281.070,211.600 281.400 M186.600 288.000 C 186.464 288.220,185.868 288.421,185.276 288.446 C 184.507 288.480,184.415 288.548,184.953 288.686 C 185.366 288.792,186.119 288.657,186.626 288.386 C 187.132 288.115,187.828 288.002,188.173 288.134 C 188.518 288.267,188.800 288.201,188.800 287.987 C 188.800 287.476,186.917 287.486,186.600 288.000 M176.576 290.987 C 176.149 291.310,175.989 291.580,176.220 291.587 C 176.451 291.594,176.811 291.435,177.020 291.234 C 177.229 291.032,177.850 290.787,178.400 290.688 L 179.400 290.509 178.376 290.454 C 177.814 290.425,177.004 290.664,176.576 290.987 M169.400 293.014 C 167.785 293.754,168.751 293.755,170.454 293.016 C 171.194 292.694,171.530 292.439,171.200 292.448 C 170.870 292.457,170.060 292.712,169.400 293.014 M166.200 294.000 C 166.064 294.220,166.223 294.400,166.553 294.400 C 166.883 294.400,167.264 294.220,167.400 294.000 C 167.536 293.780,167.377 293.600,167.047 293.600 C 166.717 293.600,166.336 293.780,166.200 294.000 M160.176 295.787 C 159.166 296.551,159.604 296.559,161.054 295.802 C 161.684 295.474,161.919 295.204,161.576 295.202 C 161.234 295.201,160.604 295.464,160.176 295.787 M152.800 297.833 C 151.476 298.568,152.349 298.556,154.054 297.816 C 154.937 297.432,155.125 297.239,154.600 297.255 C 154.160 297.268,153.350 297.528,152.800 297.833 M188.800 298.000 C 188.800 298.747,188.907 298.853,189.280 298.480 C 189.653 298.107,189.653 297.893,189.280 297.520 C 188.907 297.147,188.800 297.253,188.800 298.000 M143.612 300.384 C 142.569 301.044,143.442 301.235,144.640 300.610 C 145.567 300.126,145.639 300.006,145.000 300.009 C 144.560 300.011,143.935 300.180,143.612 300.384 M188.800 301.800 C 188.800 302.930,188.955 303.551,189.200 303.400 C 189.420 303.264,189.600 302.544,189.600 301.800 C 189.600 301.056,189.420 300.336,189.200 300.200 C 188.955 300.049,188.800 300.670,188.800 301.800 M140.667 301.467 C 140.236 301.897,140.361 303.600,140.824 303.600 C 141.057 303.600,141.138 303.424,141.005 303.208 C 140.872 302.993,140.958 302.453,141.196 302.008 C 141.603 301.247,141.249 300.884,140.667 301.467 M143.400 304.212 C 144.280 304.529,145.270 304.777,145.600 304.764 C 146.442 304.729,143.577 303.664,142.600 303.648 C 142.160 303.641,142.520 303.895,143.400 304.212 M148.200 305.200 C 148.336 305.420,148.842 305.587,149.324 305.572 C 150.169 305.545,150.171 305.531,149.400 305.200 C 148.299 304.727,147.908 304.727,148.200 305.200 M154.500 306.676 C 154.885 306.776,155.515 306.776,155.900 306.676 C 156.285 306.575,155.970 306.493,155.200 306.493 C 154.430 306.493,154.115 306.575,154.500 306.676 M156.800 307.269 C 156.800 307.451,157.340 307.600,158.000 307.600 C 158.660 307.600,159.200 307.530,159.200 307.445 C 159.200 307.360,158.660 307.212,158.000 307.115 C 157.340 307.018,156.800 307.087,156.800 307.269 M161.600 308.000 C 161.600 308.220,162.005 308.397,162.500 308.394 C 163.228 308.389,163.285 308.314,162.800 308.000 C 162.024 307.499,161.600 307.499,161.600 308.000 M166.000 308.990 C 166.990 309.319,168.160 309.572,168.600 309.553 C 169.482 309.515,167.329 308.852,165.400 308.569 C 164.617 308.454,164.826 308.600,166.000 308.990 M170.600 310.000 C 170.736 310.220,171.242 310.387,171.724 310.372 C 172.569 310.345,172.571 310.331,171.800 310.000 C 170.699 309.527,170.308 309.527,170.600 310.000 M177.300 311.476 C 177.685 311.576,178.315 311.576,178.700 311.476 C 179.085 311.375,178.770 311.293,178.000 311.293 C 177.230 311.293,176.915 311.375,177.300 311.476 M180.000 311.982 C 180.330 312.205,180.945 312.391,181.367 312.394 C 182.390 312.402,182.071 312.173,180.600 311.844 C 179.724 311.648,179.562 311.685,180.000 311.982 M248.493 334.400 C 248.493 335.170,248.575 335.485,248.676 335.100 C 248.776 334.715,248.776 334.085,248.676 333.700 C 248.575 333.315,248.493 333.630,248.493 334.400 M270.523 337.041 C 271.141 337.376,271.951 337.569,272.323 337.471 C 272.818 337.341,272.764 337.280,272.124 337.246 C 271.642 337.221,271.136 337.020,271.000 336.800 C 270.864 336.580,270.448 336.407,270.076 336.416 C 269.624 336.427,269.772 336.634,270.523 337.041 M277.200 339.034 C 277.970 339.398,278.913 339.854,279.295 340.048 C 280.197 340.505,280.505 340.494,280.209 340.015 C 280.078 339.803,279.393 339.462,278.686 339.258 C 277.978 339.054,277.040 338.771,276.600 338.629 C 276.160 338.487,276.430 338.669,277.200 339.034 M284.923 341.841 C 285.541 342.176,286.351 342.369,286.723 342.271 C 287.218 342.141,287.164 342.080,286.524 342.046 C 286.042 342.021,285.536 341.820,285.400 341.600 C 285.264 341.380,284.848 341.207,284.476 341.216 C 284.024 341.227,284.172 341.434,284.923 341.841 M291.233 344.121 C 291.325 344.188,291.940 344.558,292.600 344.945 L 293.800 345.647 292.856 344.824 C 292.336 344.371,291.721 344.000,291.489 344.000 C 291.257 344.000,291.142 344.054,291.233 344.121 M82.000 350.987 C 82.000 351.345,82.235 351.485,82.600 351.345 C 82.930 351.218,83.200 350.954,83.200 350.757 C 83.200 350.561,82.930 350.400,82.600 350.400 C 82.270 350.400,82.000 350.664,82.000 350.987 M281.600 353.000 C 280.965 353.363,280.827 353.577,281.220 353.586 C 281.561 353.594,282.011 353.437,282.220 353.239 C 282.429 353.040,282.960 352.791,283.400 352.685 L 284.200 352.493 283.400 352.461 C 282.960 352.443,282.150 352.686,281.600 353.000 M252.691 355.489 C 253.401 355.577,254.661 355.579,255.491 355.492 C 256.321 355.405,255.740 355.333,254.200 355.331 C 252.660 355.329,251.981 355.400,252.691 355.489 M263.300 355.498 C 265.225 355.571,268.375 355.571,270.300 355.498 C 272.225 355.425,270.650 355.365,266.800 355.365 C 262.950 355.365,261.375 355.425,263.300 355.498 M208.678 471.856 C 208.358 472.175,208.719 472.800,209.224 472.800 C 209.431 472.800,209.600 472.530,209.600 472.200 C 209.600 471.581,209.128 471.405,208.678 471.856 M296.006 561.924 C 296.002 562.972,296.157 563.550,296.400 563.400 C 296.907 563.086,296.907 561.585,296.400 560.800 C 296.116 560.361,296.011 560.663,296.006 561.924 " stroke="none" fill="#1c1c21" fill-rule="evenodd"></path><path id="path8" d="M296.000 565.043 C 296.000 566.631,296.478 566.611,296.692 565.014 C 296.762 564.489,296.635 563.945,296.410 563.806 C 296.158 563.650,296.000 564.128,296.000 565.043 " stroke="none" fill="#141830" fill-rule="evenodd"></path></g></svg>